#N canvas 127 191 1056 310 10;
#X obj 1 1 cnv 15 1035 60 empty empty nShaper 5 12 0 21 -99865 -33289
0;
#N canvas 1 78 1351 689 CORE 0;
#X obj 11 11 cnv 15 245 250 empty empty DCO 5 12 0 14 -130160 -66577
0;
#X obj 257 11 cnv 15 260 250 empty empty EG 5 12 0 14 -260097 -66577
0;
#X obj 518 11 cnv 15 275 250 empty empty LFO+FX 5 12 0 14 -130160 -66577
0;
#X obj 14 57 vsl 15 100 -1 1 0 0 empty empty p1 0 -9 0 10 -260097 -1
-1 4950 0;
#X obj 34 57 vsl 15 100 -1 1 0 0 empty empty p2 0 -9 0 10 -260097 -1
-1 0 0;
#X obj 54 57 vsl 15 100 -1 1 0 0 empty empty p3 0 -9 0 10 -260097 -1
-1 4950 0;
#X obj 74 57 vsl 15 100 -1 1 0 0 empty empty p4 0 -9 0 10 -260097 -1
-1 9900 0;
#X obj 94 57 vsl 15 100 -1 1 0 0 empty empty p5 0 -9 0 10 -260097 -1
-1 4950 0;
#X obj 855 -75 bng 15 250 50 0 empty empty empty 17 7 0 10 -262144
-1 -1;
#X obj 855 -55 s clear;
#X floatatom 597 442 5 0 0 0 - - -, f 5;
#X obj 597 461 pack 0 5;
#X obj 597 483 line~;
#X obj 595 813 dac~;
#X obj 18 210 hsl 128 15 0 1 0 0 empty empty SubOscVolume 5 8 0 10
-260097 -1 -1 0 0;
#X floatatom 798 596 5 0 0 0 - - -, f 5;
#X floatatom 868 346 5 0 0 0 - - -, f 5;
#X floatatom 908 346 5 0 0 0 - - -, f 5;
#X obj 597 399 mtof;
#X obj 707 -88 loadbang;
#X msg 586 -57 512;
#X floatatom 650 440 5 0 0 0 - - -, f 5;
#X obj 598 549 hip~ 10;
#X obj 597 303 notein;
#N canvas 1 78 1351 656 ADSR 0;
#X obj 180 632 outlet~;
#X obj 180 457 vline~;
#X obj 568 41 inlet;
#X text 568 13 vel;
#X obj 231 507 / 127;
#X msg 326 383 0 700;
#X obj 436 422 sel 1 0;
#X obj 192 356 del 1000;
#X obj 247 202 pack 0 0;
#X msg 112 380 1 2;
#X msg 132 178 set 1 \$1;
#X msg 192 385 0.7 300;
#X msg 247 236 set \$2 \$1;
#X msg 336 171 set 0 \$1;
#X obj 468 41 inlet;
#X obj 159 41 r attack;
#X obj 229 41 r decay;
#X obj 289 41 r sustain;
#X obj 362 41 r release;
#X text 468 13 pitch;
#X obj 436 349 > 0;
#X msg 460 483 stop;
#X obj 180 509 *~;
#X obj 180 582 *~;
#X obj 231 529 pack 0 5;
#X obj 112 402 t a b;
#X obj 464 451 t b b;
#X obj 159 63 t f f;
#X obj 468 63 stripnote;
#X obj 231 551 line~;
#X obj 689 37 r adsr2amp;
#X floatatom 689 81 5 0 0 0 - - -, f 5;
#X obj 180 561 +~;
#X obj 129 488 sig~ 1;
#X obj 129 510 *~;
#X obj 180 529 *~;
#X obj 689 100 t f f;
#X obj 732 136 expr 1-$f1;
#X floatatom 732 158 5 0 0 0 - - -, f 5;
#X obj 815 37 loadbang;
#X obj 689 59 == 1;
#X msg 815 59 1;
#X floatatom 652 158 5 0 0 0 - - -, f 5;
#X obj 475 158 spigot;
#X obj 535 208 spigot;
#X obj 514 130 tgl 15 0 empty empty empty 17 7 0 10 -262144 -1 -1 1
1;
#X obj 574 180 tgl 15 0 empty empty empty 17 7 0 10 -262144 -1 -1 0
1;
#X obj 732 207 pack 0 5;
#X obj 732 229 line~;
#X obj 652 207 pack 0 5;
#X obj 652 229 line~;
#X obj 652 177 t f f;
#X obj 547 159 f;
#X obj 732 177 t f b f;
#X obj 280 632 outlet~;
#X obj 595 101 t f f f f;
#X obj 364 205 != 0;
#X obj 349 244 spigot;
#X obj 364 227 tgl 15 0 empty empty empty 17 7 0 10 -262144 -1 -1 0
1;
#X obj 306 271 f;
#X obj 306 293 pack 0 10;
#X obj 417 188 f;
#X obj 263 131 t b b b f f;
#X connect 1 0 22 0;
#X connect 1 0 22 1;
#X connect 2 0 55 0;
#X connect 4 0 24 0;
#X connect 5 0 1 0;
#X connect 6 0 9 0;
#X connect 6 1 26 0;
#X connect 7 0 11 0;
#X connect 8 0 12 0;
#X connect 9 0 25 0;
#X connect 10 0 9 0;
#X connect 11 0 1 0;
#X connect 12 0 11 0;
#X connect 13 0 5 0;
#X connect 14 0 28 0;
#X connect 15 0 27 0;
#X connect 16 0 8 0;
#X connect 17 0 62 0;
#X connect 18 0 13 0;
#X connect 20 0 6 0;
#X connect 21 0 7 0;
#X connect 22 0 35 0;
#X connect 22 0 54 0;
#X connect 23 0 0 0;
#X connect 24 0 29 0;
#X connect 25 0 1 0;
#X connect 25 1 7 0;
#X connect 26 0 5 0;
#X connect 26 1 21 0;
#X connect 27 0 10 0;
#X connect 27 1 7 1;
#X connect 28 1 43 0;
#X connect 29 0 23 1;
#X connect 30 0 40 0;
#X connect 31 0 36 0;
#X connect 32 0 23 0;
#X connect 33 0 34 0;
#X connect 34 0 32 1;
#X connect 35 0 32 0;
#X connect 36 0 42 0;
#X connect 36 1 37 0;
#X connect 37 0 38 0;
#X connect 38 0 53 0;
#X connect 39 0 41 0;
#X connect 40 0 31 0;
#X connect 41 0 31 0;
#X connect 42 0 51 0;
#X connect 43 0 4 0;
#X connect 44 0 4 0;
#X connect 45 0 43 1;
#X connect 46 0 44 1;
#X connect 47 0 48 0;
#X connect 48 0 34 1;
#X connect 49 0 50 0;
#X connect 50 0 35 1;
#X connect 51 0 49 0;
#X connect 51 1 45 0;
#X connect 52 0 44 0;
#X connect 53 0 47 0;
#X connect 53 1 52 0;
#X connect 53 2 46 0;
#X connect 55 0 28 1;
#X connect 55 1 20 0;
#X connect 55 2 52 0;
#X connect 55 3 61 1;
#X connect 56 0 58 0;
#X connect 57 0 59 0;
#X connect 58 0 57 1;
#X connect 59 0 60 0;
#X connect 60 0 1 0;
#X connect 61 0 56 0;
#X connect 62 0 57 0;
#X connect 62 1 61 0;
#X connect 62 2 8 0;
#X connect 62 3 8 1;
#X connect 62 4 59 1;
#X restore 623 628 pd ADSR;
#X obj 599 668 *~;
#N canvas 70 138 671 448 ADSR_GUI 0;
#X text 54 103 attack;
#X text 115 103 decay;
#X text 176 103 sustain;
#X text 237 103 release;
#X obj 468 140 loadbang;
#X msg 534 172 700;
#X obj 119 414 s attack;
#X obj 183 414 s decay;
#X obj 247 414 s sustain;
#X obj 316 414 s release;
#X floatatom 54 120 7 1.5 2000 0 - - -, f 7;
#X floatatom 115 120 7 5 2000 0 - - -, f 7;
#X floatatom 176 120 7 0 1 0 - - -, f 7;
#X floatatom 237 120 7 5 2500 0 - - -, f 7;
#X obj 57 140 hsl 200 15 2 2000 0 0 empty empty empty -2 -8 0 10 -130160
-1 -1 0 0;
#X obj 57 174 hsl 200 15 0 1 0 0 empty empty empty -2 -8 0 10 -130160
-1 -1 13930 0;
#X obj 57 191 hsl 200 15 5 2500 0 0 empty empty empty -2 -8 0 10 -130160
-1 -1 5543 0;
#X obj 57 157 hsl 200 15 10 2000 0 0 empty empty empty -2 -8 0 10 -130160
-1 -1 2900 0;
#X msg 74 32 set \$1;
#X msg 126 29 set \$1;
#X msg 178 30 set \$1;
#X msg 233 30 set \$1;
#X text 265 139 A;
#X text 265 155 D;
#X text 265 171 S;
#X text 264 187 R;
#X msg 409 175 2;
#X msg 493 173 0.7;
#X msg 450 172 300;
#X connect 4 0 5 0;
#X connect 4 0 27 0;
#X connect 4 0 28 0;
#X connect 4 0 26 0;
#X connect 5 0 16 0;
#X connect 10 0 14 0;
#X connect 11 0 17 0;
#X connect 12 0 15 0;
#X connect 13 0 16 0;
#X connect 14 0 18 0;
#X connect 14 0 6 0;
#X connect 15 0 20 0;
#X connect 15 0 8 0;
#X connect 16 0 21 0;
#X connect 16 0 9 0;
#X connect 17 0 19 0;
#X connect 17 0 7 0;
#X connect 18 0 10 0;
#X connect 19 0 11 0;
#X connect 20 0 12 0;
#X connect 21 0 13 0;
#X connect 26 0 14 0;
#X connect 27 0 15 0;
#X connect 28 0 17 0;
#X coords 0 -1 1 1 245 110 2 50 100;
#X restore 261 94 pd ADSR_GUI;
#N canvas 1 78 450 300 monoMidi 0;
#X floatatom 195 79 5 0 0 0 - - -, f 5;
#X floatatom 253 79 5 0 0 0 - - -, f 5;
#X obj 225 125 stripnote;
#X obj 253 100 t f f;
#X obj 195 154 ==;
#X obj 226 241 f;
#X obj 195 178 sel 1;
#X obj 195 100 t f f f;
#X obj 195 35 inlet;
#X obj 253 35 inlet;
#X obj 165 281 outlet;
#X obj 226 281 outlet;
#X text 196 13 note;
#X text 255 13 vel;
#X obj 165 241 f;
#X obj 195 202 t b b;
#X connect 0 0 7 0;
#X connect 1 0 3 0;
#X connect 2 0 4 1;
#X connect 3 0 5 1;
#X connect 3 1 2 1;
#X connect 4 0 6 0;
#X connect 5 0 11 0;
#X connect 6 0 15 0;
#X connect 7 0 4 0;
#X connect 7 1 14 1;
#X connect 7 2 2 0;
#X connect 8 0 0 0;
#X connect 9 0 1 0;
#X connect 14 0 10 0;
#X connect 15 0 14 0;
#X connect 15 1 5 0;
#X restore 597 337 pd monoMidi;
#N canvas 0 78 1366 690 window 0;
#X obj 112 206 until;
#N canvas 1 77 450 300 (subpatch) 0;
#X array window_1 515 float 5;
#A 0 0 1 1 1 1 1 1 1 1 1 1 1 1 1 1 1 1 1 1 1 1 1 1 1 1 1 1 1 1 1 1
1 1 1 1 1 1 1 1 1 1 1 1 1 1 1 1 1 1 1 1 1 1 1 1 1 1 1 1 1 1 1 1 1 1
1 1 1 1 1 1 1 1 1 1 1 1 1 1 1 1 1 1 1 1 1 1 1 1 1 1 1 1 1 1 1 1 1 1
1 1 1 1 1 1 1 1 1 1 1 1 1 1 1 1 1 1 1 1 1 1 1 1 1 1 1 1 1 1 1 1 1 1
1 1 1 1 1 1 1 1 1 1 1 1 1 1 1 1 1 1 1 1 1 1 1 1 1 1 1 1 1 1 1 1 1 1
1 1 1 1 1 1 1 1 1 1 1 1 1 1 1 1 1 1 1 1 1 1 1 1 1 1 1 1 1 1 1 1 1 1
1 1 1 1 1 1 1 1 1 1 1 1 1 1 1 1 1 1 1 1 1 1 1 1 1 1 1 1 1 1 1 1 1 1
1 1 1 1 1 1 1 1 1 1 1 1 1 1 1 1 1 1 1 1 1 1 1 1 1 1 1 1 1 1 1 1 1 1
1 1 1 1 1 1 1 1 1 1 1 1 1 1 1 1 1 1 1 1 1 1 1 1 1 1 1 1 1 1 1 1 1 1
1 1 1 1 1 1 1 1 1 1 1 1 1 1 1 1 1 1 1 1 1 1 1 1 1 1 1 1 1 1 1 1 1 1
1 1 1 1 1 1 1 1 1 1 1 1 1 1 1 1 1 1 1 1 1 1 1 1 1 1 1 1 1 1 1 1 1 1
1 1 1 1 1 1 1 1 1 1 1 1 1 1 1 1 1 1 1 1 1 1 1 1 1 1 1 1 1 1 1 1 1 1
1 1 1 1 1 1 1 1 1 1 1 1 1 1 1 1 1 1 1 1 1 1 1 1 1 1 1 1 1 1 1 1 1 1
1 1 1 1 1 1 1 1 1 1 1 1 1 1 1 1 1 1 1 1 1 1 1 1 1 1 1 1 1 1 1 1 1 1
1 1 1 1 1 1 1 1 1 1 1 1 1 1 1 1 1 1 1 1 1 1 1 1 1 1 1 1 1 1 1 1 1 1
1 1 1 1 1 1 0 0;
#X coords 0 1 514 0 280 160 1 0 0;
#X restore 900 185 graph;
#X obj 112 156 t f f f;
#X obj 112 34 inlet;
#X obj 279 47 loadbang;
#X obj 112 273 t f f;
#X obj -21 741 tabwrite window_1;
#X obj 112 239 f;
#X obj 149 239 + 1;
#X obj 228 292 sel 511;
#X msg 228 316 0;
#X obj 274 267 - 1;
#X msg 255 193 resize \$1 \;;
#X obj 255 219 s window_1;
#X floatatom 425 157 5 0 10 0 - - -, f 5;
#X obj 112 126 f;
#X obj 425 182 t b f;
#X obj 425 50 inlet;
#X text 112 11 sample number;
#X msg 279 102 0;
#X obj 112 313 list prepend;
#X obj 279 72 t b b;
#X text 877 331 0;
#X text 872 183 +1;
#X text 418 22 window type;
#X obj -121 589 expr 0.5-0.5*cos((2*3.1415*$f1+3.1415)/$f2);
#X obj 145 544 t b f;
#X text 102 608 Hann window;
#X obj 437 241 max 1e-05;
#X obj 275 592 expr 0.54-0.46*cos((2*3.1415*$f1+3.1415)/$f2);
#X text 484 611 Hamming window;
#X obj 555 569 t b f;
#X obj 1011 553 t b f;
#X obj 626 582 expr 0.42323-0.49755*cos((2*3.1415*$f1+3.1415)/$f2)+0.07922*cos((4*3.1415*$f1+2*3.1415/$f2))
;
#X text 893 638 Blackman-Harris window;
#X obj 186 654 t b f;
#X text 180 706 cosine;
#X obj 39 682 expr sin(($f1/$f2)*3.1415);
#X obj 539 667 t b f;
#X text 473 727 rectangular;
#X obj 1019 675 t b f;
#X text 875 744 triangular;
#X obj 634 701 expr if($f1>=0 && $f1<=($f2/2) \, (2*$f1/$f2) \, (2-(2*$f1/$f2))
);
#X obj 112 85 + 3;
#X msg 311 102 1024;
#X obj 329 700 expr if($f1>0 && $f1<($f2-2) \, 1 \, 0);
#X text 626 450 trapezoid;
#X obj 112 370 route 0 1 2 3 4 5 6;
#X obj 437 289 t b f;
#X obj 385 476 -;
#X obj 385 431 expr if($f1<=10 \, $f1*0.1 \, 1);
#X obj 385 396 t f f;
#X obj 610 431 expr if($f1>=($f2-10) \, abs(($f2-10)-$f1)*0.1 \, 0)
;
#X obj 943 402 - 1;
#X text 539 57 window type: 0=Hann \; 1=Hamming \; 2=Blackman-Harris
\; 3=cosine \; 4=rectangular \; 5=triangular \; 6=trapezoid;
#X connect 0 0 7 0;
#X connect 2 0 0 0;
#X connect 2 1 28 0;
#X connect 2 2 12 0;
#X connect 2 2 11 0;
#X connect 3 0 43 0;
#X connect 4 0 21 0;
#X connect 5 0 9 0;
#X connect 5 0 20 0;
#X connect 5 1 6 1;
#X connect 7 0 8 0;
#X connect 7 0 5 0;
#X connect 8 0 7 1;
#X connect 9 0 10 0;
#X connect 10 0 7 1;
#X connect 11 0 9 1;
#X connect 12 0 13 0;
#X connect 14 0 16 0;
#X connect 15 0 2 0;
#X connect 16 0 15 0;
#X connect 16 1 20 1;
#X connect 17 0 14 0;
#X connect 19 0 14 0;
#X connect 20 0 47 0;
#X connect 21 0 19 0;
#X connect 21 1 44 0;
#X connect 25 0 6 0;
#X connect 26 0 25 0;
#X connect 26 1 25 1;
#X connect 28 0 26 0;
#X connect 28 0 31 0;
#X connect 28 0 32 0;
#X connect 28 0 35 0;
#X connect 28 0 38 0;
#X connect 28 0 40 0;
#X connect 28 0 48 0;
#X connect 29 0 6 0;
#X connect 31 0 29 0;
#X connect 31 1 29 1;
#X connect 32 0 33 0;
#X connect 32 1 33 1;
#X connect 33 0 6 0;
#X connect 35 0 37 0;
#X connect 35 1 37 1;
#X connect 37 0 6 0;
#X connect 38 0 45 0;
#X connect 38 1 45 1;
#X connect 40 0 42 0;
#X connect 40 1 42 1;
#X connect 42 0 6 0;
#X connect 43 0 15 0;
#X connect 44 0 43 0;
#X connect 45 0 6 0;
#X connect 47 0 25 0;
#X connect 47 1 29 0;
#X connect 47 2 33 0;
#X connect 47 3 37 0;
#X connect 47 4 45 0;
#X connect 47 5 42 0;
#X connect 47 6 51 0;
#X connect 48 0 50 0;
#X connect 48 1 53 0;
#X connect 49 0 6 0;
#X connect 50 0 49 0;
#X connect 51 0 50 0;
#X connect 51 1 52 0;
#X connect 52 0 49 1;
#X connect 53 0 52 1;
#X restore 868 370 pd window;
#X obj 599 697 *~ 0.5;
#N canvas 1 78 450 300 volume 0;
#X msg 91 95 \$1 5;
#X obj 91 119 line~;
#X floatatom 171 72 5 0 0 0 - - -, f 5;
#X obj 74 150 *~;
#X obj 59 43 inlet~;
#X obj 55 209 outlet~;
#X obj 189 43 inlet;
#X connect 0 0 1 0;
#X connect 1 0 3 1;
#X connect 2 0 0 0;
#X connect 3 0 5 0;
#X connect 4 0 3 0;
#X connect 6 0 2 0;
#X restore 738 617 pd volume;
#N canvas 395 234 720 367 WAVETABLE 0;
#N canvas 68 175 727 385 (subpatch) 0;
#X array array1 512 float 1;
#A 0 0 -0.015625 -0.03125 -0.046875 -0.0625 -0.078125 -0.09375 -0.109375
-0.125 -0.140625 -0.15625 -0.171875 -0.1875 -0.203125 -0.21875 -0.234375
-0.25 -0.265625 -0.28125 -0.296875 -0.3125 -0.328125 -0.34375 -0.359375
-0.375 -0.390625 -0.40625 -0.421875 -0.4375 -0.453125 -0.46875 -0.484375
-0.5 -0.515625 -0.53125 -0.546875 -0.5625 -0.578125 -0.59375 -0.609375
-0.625 -0.640625 -0.65625 -0.671875 -0.6875 -0.703125 -0.71875 -0.734375
-0.75 -0.765625 -0.78125 -0.796875 -0.8125 -0.828125 -0.84375 -0.859375
-0.875 -0.890625 -0.90625 -0.921875 -0.9375 -0.953125 -0.96875 -0.984375
-1 -0.984375 -0.96875 -0.953125 -0.9375 -0.921875 -0.90625 -0.890625
-0.875 -0.859375 -0.84375 -0.828125 -0.8125 -0.796875 -0.78125 -0.765625
-0.75 -0.734375 -0.71875 -0.703125 -0.6875 -0.671875 -0.65625 -0.640625
-0.625 -0.609375 -0.59375 -0.578125 -0.5625 -0.546875 -0.53125 -0.515625
-0.5 -0.484375 -0.46875 -0.453125 -0.4375 -0.421875 -0.40625 -0.390625
-0.375 -0.359375 -0.34375 -0.328125 -0.3125 -0.296875 -0.28125 -0.265625
-0.25 -0.234375 -0.21875 -0.203125 -0.1875 -0.171875 -0.15625 -0.140625
-0.125 -0.109375 -0.09375 -0.078125 -0.0625 -0.046875 -0.03125 -0.015625
0 0.015625 0.03125 0.046875 0.0625 0.078125 0.09375 0.109375 0.125
0.140625 0.15625 0.171875 0.1875 0.203125 0.21875 0.234375 0.25 0.265625
0.28125 0.296875 0.3125 0.328125 0.34375 0.359375 0.375 0.390625 0.40625
0.421875 0.4375 0.453125 0.46875 0.484375 0.5 0.515625 0.53125 0.546875
0.5625 0.578125 0.59375 0.609375 0.625 0.640625 0.65625 0.671875 0.6875
0.703125 0.71875 0.734375 0.75 0.765625 0.78125 0.796875 0.8125 0.828125
0.84375 0.859375 0.875 0.890625 0.90625 0.921875 0.9375 0.953125 0.96875
0.984375 1 0.984375 0.96875 0.953125 0.9375 0.921875 0.90625 0.890625
0.875 0.859375 0.84375 0.828125 0.8125 0.796875 0.78125 0.765625 0.75
0.734375 0.71875 0.703125 0.6875 0.671875 0.65625 0.640625 0.625 0.609375
0.59375 0.578125 0.5625 0.546875 0.53125 0.515625 0.5 0.484375 0.46875
0.453125 0.4375 0.421875 0.40625 0.390625 0.375 0.359375 0.34375 0.328125
0.3125 0.296875 0.28125 0.265625 0.25 0.234375 0.21875 0.203125 0.1875
0.171875 0.15625 0.140625 0.125 0.109375 0.09375 0.078125 0.0625 0.046875
0.03125 0.015625 0 0 0 0 0 0 0 0 0 0 0 0 0 0 0 0 0 0 0 0 0 0 0 0 0
0 0 0 0 0 0 0 0 0 0 0 0 0 0 0 0 0 0 0 0 0 0 0 0 0 0 0 0 0 0 0 0 0 0
0 0 0 0 0 -0.740835 -0.742763 -0.744692 -0.74662 -0.748549 -0.750477
-0.752405 -0.754334 -0.756262 -0.758191 -0.760119 -0.762048 -0.763976
-0.765905 -0.767833 -0.769762 -0.77169 -0.773619 -0.775547 -0.777476
-0.779404 -0.781333 -0.783261 -0.78519 -0.787118 -0.789046 -0.790975
-0.792903 -0.794832 -0.79676 -0.798689 -0.800617 -0.802546 -0.804474
-0.806403 -0.808331 -0.81026 -0.812188 -0.814117 -0.816045 -0.817973
-0.819902 -0.82183 -0.823759 -0.825687 -0.827616 -0.829544 -0.831473
-0.833401 -0.83533 -0.837258 -0.839187 -0.841115 -0.843044 -0.844972
-0.846901 -0.848829 -0.850757 -0.852686 -0.854614 -0.856543 -0.858471
-0.8604 -0.862328 -0.864257 -0.866378 -0.868499 -0.87062 -0.872741
-0.874862 -0.876983 -0.879104 -0.881225 -0.883346 -0.885467 -0.887588
-0.889709 -0.89183 -0.893951 -0.896072 -0.898193 -0.900314 -0.902435
-0.904556 -0.906677 -0.908798 -0.910919 -0.91304 -0.91516 -0.917282
-0.919402 -0.921523 -0.923644 -0.925765 -0.927886 -0.930007 -0.932128
-0.934249 -0.93637 -0.938491 -0.940612 -0.942733 -0.944854 -0.946975
-0.949096 -0.951217 -0.953338 -0.955459 -0.95758 -0.959701 -0.961822
-0.963943 -0.966064 -0.968185 -0.970306 -0.972427 -0.974548 -0.976669
-0.97879 -0.980911 -0.983032 -0.985153 -0.987274 -0.989395 -0.991516
-0.993637 -0.995758 -0.997879 -1 -1 -1 -1 -1 -1 -1 -1 -1 -1 -1 -1 -1
-1 -1 -1 -1 -1 -1 -1 -1 -1 -1 -1 -1 -1 -1 -1 -1 -1 -1 -1 -1 -1 -1 -1
-1 -1 -1 -1 -1 -1 -1 -1 -1 -1 -1 -1 -1 -1 -1 -1 -1 -1 -1 -1 -1 -1 -1
-1 -1 -1 -1 -1;
#X coords 0 1.1 511 -1.1 240 160 1 0 0;
#X restore 28 39 graph;
#N canvas 1 78 1351 656 MATHS 0;
#X obj 161 357 tabwrite array1;
#X obj 264 19 r p1;
#X obj 314 19 r p2;
#X obj 364 19 r p3;
#X obj 414 19 r p4;
#X obj 314 161 t f f;
#X obj 364 161 t f f;
#X obj 414 161 t f f;
#X obj 276 57 r pP1;
#X obj 326 57 r pP2;
#X obj 376 57 r pP3;
#X obj 426 57 r pP4;
#X obj 161 301 r valueToArray;
#X obj 271 301 r indexToArray;
#N canvas 519 196 695 444 LINEequation 0;
#X floatatom 73 320 12 0 0 0 - - -, f 12;
#X obj 73 186 t f b;
#X obj 73 208 until;
#X obj 73 230 f 0;
#X msg 130 208 0;
#X obj 96 273 + 1;
#X obj 73 252 t f f f;
#X msg 73 164 64;
#X obj 161 253 t b f;
#X obj 231 253 t b f;
#X obj 73 384 s valueToArray;
#X obj 183 384 s indexToArray;
#X obj 161 93 inlet;
#X obj 231 93 inlet;
#X text 227 74 endPoint;
#X text 147 74 startPoint;
#X floatatom 161 115 5 0 0 0 - - -, f 5;
#X floatatom 231 115 5 0 0 0 - - -, f 5;
#X floatatom 321 165 5 0 0 0 - - -, f 5;
#X obj 384 12 loadbang;
#X msg 384 34 64;
#X msg 321 206 set \$1;
#X text 317 124 segment length;
#X obj 73 298 expr ((($f3-$f2)/$f4)*$f1)+$f2;
#X obj 183 336 + 0;
#X obj 471 93 inlet;
#X floatatom 471 115 5 0 0 0 - - -, f 5;
#X obj 471 133 * 64;
#X floatatom 471 155 5 0 0 0 - - -, f 5;
#X obj 321 184 t f f f;
#X text 467 74 startingPointNr;
#X obj 321 143 r segLength;
#X connect 0 0 10 0;
#X connect 1 0 2 0;
#X connect 1 1 4 0;
#X connect 2 0 3 0;
#X connect 3 0 6 0;
#X connect 4 0 3 1;
#X connect 5 0 3 1;
#X connect 6 0 23 0;
#X connect 6 1 5 0;
#X connect 6 2 24 0;
#X connect 7 0 1 0;
#X connect 8 0 7 0;
#X connect 8 1 23 1;
#X connect 9 0 7 0;
#X connect 9 1 23 2;
#X connect 12 0 16 0;
#X connect 13 0 17 0;
#X connect 16 0 8 0;
#X connect 17 0 9 0;
#X connect 18 0 29 0;
#X connect 19 0 20 0;
#X connect 20 0 18 0;
#X connect 21 0 7 0;
#X connect 23 0 0 0;
#X connect 24 0 11 0;
#X connect 25 0 26 0;
#X connect 26 0 27 0;
#X connect 27 0 28 0;
#X connect 28 0 24 1;
#X connect 29 0 21 0;
#X connect 29 1 23 3;
#X connect 29 2 27 1;
#X connect 31 0 18 0;
#X restore 161 262 pd LINEequation;
#X obj 96 29 loadbang;
#N canvas 517 196 695 444 LINEequation 0;
#X floatatom 73 320 12 0 0 0 - - -, f 12;
#X obj 73 186 t f b;
#X obj 73 208 until;
#X obj 73 230 f 0;
#X msg 130 208 0;
#X obj 96 273 + 1;
#X obj 73 252 t f f f;
#X msg 73 164 64;
#X obj 161 253 t b f;
#X obj 231 253 t b f;
#X obj 73 384 s valueToArray;
#X obj 183 384 s indexToArray;
#X obj 161 93 inlet;
#X obj 231 93 inlet;
#X text 227 74 endPoint;
#X text 147 74 startPoint;
#X floatatom 161 115 5 0 0 0 - - -, f 5;
#X floatatom 231 115 5 0 0 0 - - -, f 5;
#X floatatom 321 165 5 0 0 0 - - -, f 5;
#X obj 384 12 loadbang;
#X msg 384 34 64;
#X msg 321 206 set \$1;
#X text 317 124 segment length;
#X obj 73 298 expr ((($f3-$f2)/$f4)*$f1)+$f2;
#X obj 183 336 + 0;
#X obj 471 93 inlet;
#X floatatom 471 115 5 0 0 0 - - -, f 5;
#X obj 471 133 * 64;
#X floatatom 471 155 5 0 0 0 - - -, f 5;
#X obj 321 184 t f f f;
#X text 467 74 startingPointNr;
#X obj 321 143 r segLength;
#X connect 0 0 10 0;
#X connect 1 0 2 0;
#X connect 1 1 4 0;
#X connect 2 0 3 0;
#X connect 3 0 6 0;
#X connect 4 0 3 1;
#X connect 5 0 3 1;
#X connect 6 0 23 0;
#X connect 6 1 5 0;
#X connect 6 2 24 0;
#X connect 7 0 1 0;
#X connect 8 0 7 0;
#X connect 8 1 23 1;
#X connect 9 0 7 0;
#X connect 9 1 23 2;
#X connect 12 0 16 0;
#X connect 13 0 17 0;
#X connect 16 0 8 0;
#X connect 17 0 9 0;
#X connect 18 0 29 0;
#X connect 19 0 20 0;
#X connect 20 0 18 0;
#X connect 21 0 7 0;
#X connect 23 0 0 0;
#X connect 24 0 11 0;
#X connect 25 0 26 0;
#X connect 26 0 27 0;
#X connect 27 0 28 0;
#X connect 28 0 24 1;
#X connect 29 0 21 0;
#X connect 29 1 23 3;
#X connect 29 2 27 1;
#X connect 31 0 18 0;
#X restore 281 262 pd LINEequation;
#X msg 383 242 1;
#N canvas 517 196 695 444 LINEequation 0;
#X floatatom 73 320 12 0 0 0 - - -, f 12;
#X obj 73 186 t f b;
#X obj 73 208 until;
#X obj 73 230 f 0;
#X msg 130 208 0;
#X obj 96 273 + 1;
#X obj 73 252 t f f f;
#X msg 73 164 64;
#X obj 161 253 t b f;
#X obj 231 253 t b f;
#X obj 73 384 s valueToArray;
#X obj 183 384 s indexToArray;
#X obj 161 93 inlet;
#X obj 231 93 inlet;
#X text 227 74 endPoint;
#X text 147 74 startPoint;
#X floatatom 161 115 5 0 0 0 - - -, f 5;
#X floatatom 231 115 5 0 0 0 - - -, f 5;
#X floatatom 321 165 5 0 0 0 - - -, f 5;
#X obj 384 12 loadbang;
#X msg 384 34 64;
#X msg 321 206 set \$1;
#X text 317 124 segment length;
#X obj 73 298 expr ((($f3-$f2)/$f4)*$f1)+$f2;
#X obj 183 336 + 0;
#X obj 471 93 inlet;
#X floatatom 471 115 5 0 0 0 - - -, f 5;
#X obj 471 133 * 64;
#X floatatom 471 155 5 0 0 0 - - -, f 5;
#X obj 321 184 t f f f;
#X text 467 74 startingPointNr;
#X obj 321 143 r segLength;
#X connect 0 0 10 0;
#X connect 1 0 2 0;
#X connect 1 1 4 0;
#X connect 2 0 3 0;
#X connect 3 0 6 0;
#X connect 4 0 3 1;
#X connect 5 0 3 1;
#X connect 6 0 23 0;
#X connect 6 1 5 0;
#X connect 6 2 24 0;
#X connect 7 0 1 0;
#X connect 8 0 7 0;
#X connect 8 1 23 1;
#X connect 9 0 7 0;
#X connect 9 1 23 2;
#X connect 12 0 16 0;
#X connect 13 0 17 0;
#X connect 16 0 8 0;
#X connect 17 0 9 0;
#X connect 18 0 29 0;
#X connect 19 0 20 0;
#X connect 20 0 18 0;
#X connect 21 0 7 0;
#X connect 23 0 0 0;
#X connect 24 0 11 0;
#X connect 25 0 26 0;
#X connect 26 0 27 0;
#X connect 27 0 28 0;
#X connect 28 0 24 1;
#X connect 29 0 21 0;
#X connect 29 1 23 3;
#X connect 29 2 27 1;
#X connect 31 0 18 0;
#X restore 421 262 pd LINEequation;
#N canvas 517 196 695 444 LINEequation 0;
#X floatatom 73 320 12 0 0 0 - - -, f 12;
#X obj 73 186 t f b;
#X obj 73 208 until;
#X obj 73 230 f 0;
#X msg 130 208 0;
#X obj 96 273 + 1;
#X obj 73 252 t f f f;
#X msg 73 164 64;
#X obj 231 253 t b f;
#X obj 73 384 s valueToArray;
#X obj 183 384 s indexToArray;
#X obj 161 93 inlet;
#X obj 231 93 inlet;
#X text 227 74 endPoint;
#X text 147 74 startPoint;
#X floatatom 161 115 5 0 0 0 - - -, f 5;
#X floatatom 231 115 5 0 0 0 - - -, f 5;
#X floatatom 321 165 5 0 0 0 - - -, f 5;
#X obj 384 12 loadbang;
#X msg 384 34 64;
#X msg 321 206 set \$1;
#X text 317 124 segment length;
#X obj 73 298 expr ((($f3-$f2)/$f4)*$f1)+$f2;
#X obj 183 336 + 0;
#X obj 471 93 inlet;
#X floatatom 471 115 5 0 0 0 - - -, f 5;
#X obj 471 133 * 64;
#X floatatom 471 155 5 0 0 0 - - -, f 5;
#X obj 321 184 t f f f;
#X text 467 74 startingPointNr;
#X obj 321 143 r segLength;
#X obj 161 253 t b f;
#X connect 0 0 9 0;
#X connect 1 0 2 0;
#X connect 1 1 4 0;
#X connect 2 0 3 0;
#X connect 3 0 6 0;
#X connect 4 0 3 1;
#X connect 5 0 3 1;
#X connect 6 0 22 0;
#X connect 6 1 5 0;
#X connect 6 2 23 0;
#X connect 7 0 1 0;
#X connect 8 0 7 0;
#X connect 8 1 22 2;
#X connect 11 0 15 0;
#X connect 12 0 16 0;
#X connect 15 0 31 0;
#X connect 16 0 8 0;
#X connect 17 0 28 0;
#X connect 18 0 19 0;
#X connect 19 0 17 0;
#X connect 20 0 7 0;
#X connect 22 0 0 0;
#X connect 23 0 10 0;
#X connect 24 0 25 0;
#X connect 25 0 26 0;
#X connect 26 0 27 0;
#X connect 27 0 23 1;
#X connect 28 0 20 0;
#X connect 28 1 22 3;
#X connect 28 2 26 1;
#X connect 30 0 17 0;
#X connect 31 0 7 0;
#X connect 31 1 22 1;
#X restore 561 262 pd LINEequation;
#N canvas 517 196 695 444 LINEequation 0;
#X floatatom 73 320 12 0 0 0 - - -, f 12;
#X obj 73 186 t f b;
#X obj 73 208 until;
#X obj 73 230 f 0;
#X msg 130 208 0;
#X obj 96 273 + 1;
#X obj 73 252 t f f f;
#X msg 73 164 64;
#X obj 231 253 t b f;
#X obj 73 384 s valueToArray;
#X obj 183 384 s indexToArray;
#X obj 161 93 inlet;
#X obj 231 93 inlet;
#X text 227 74 endPoint;
#X text 147 74 startPoint;
#X floatatom 161 115 5 0 0 0 - - -, f 5;
#X floatatom 231 115 5 0 0 0 - - -, f 5;
#X floatatom 321 165 5 0 0 0 - - -, f 5;
#X obj 384 12 loadbang;
#X msg 384 34 64;
#X msg 321 206 set \$1;
#X text 317 124 segment length;
#X obj 73 298 expr ((($f3-$f2)/$f4)*$f1)+$f2;
#X obj 183 336 + 0;
#X obj 471 93 inlet;
#X floatatom 471 115 5 0 0 0 - - -, f 5;
#X obj 471 133 * 64;
#X floatatom 471 155 5 0 0 0 - - -, f 5;
#X obj 321 184 t f f f;
#X text 467 74 startingPointNr;
#X obj 321 143 r segLength;
#X obj 161 253 t b f;
#X connect 0 0 9 0;
#X connect 1 0 2 0;
#X connect 1 1 4 0;
#X connect 2 0 3 0;
#X connect 3 0 6 0;
#X connect 4 0 3 1;
#X connect 5 0 3 1;
#X connect 6 0 22 0;
#X connect 6 1 5 0;
#X connect 6 2 23 0;
#X connect 7 0 1 0;
#X connect 8 0 7 0;
#X connect 8 1 22 2;
#X connect 11 0 15 0;
#X connect 12 0 16 0;
#X connect 15 0 31 0;
#X connect 16 0 8 0;
#X connect 17 0 28 0;
#X connect 18 0 19 0;
#X connect 19 0 17 0;
#X connect 20 0 7 0;
#X connect 22 0 0 0;
#X connect 23 0 10 0;
#X connect 24 0 25 0;
#X connect 25 0 26 0;
#X connect 26 0 27 0;
#X connect 27 0 23 1;
#X connect 28 0 20 0;
#X connect 28 1 22 3;
#X connect 28 2 26 1;
#X connect 30 0 17 0;
#X connect 31 0 7 0;
#X connect 31 1 22 1;
#X restore 691 262 pd LINEequation;
#N canvas 517 196 695 444 LINEequation 0;
#X floatatom 73 320 12 0 0 0 - - -, f 12;
#X obj 73 186 t f b;
#X obj 73 208 until;
#X obj 73 230 f 0;
#X msg 130 208 0;
#X obj 96 273 + 1;
#X obj 73 252 t f f f;
#X msg 73 164 64;
#X obj 231 253 t b f;
#X obj 73 384 s valueToArray;
#X obj 183 384 s indexToArray;
#X obj 161 93 inlet;
#X obj 231 93 inlet;
#X text 227 74 endPoint;
#X text 147 74 startPoint;
#X floatatom 161 115 5 0 0 0 - - -, f 5;
#X floatatom 231 115 5 0 0 0 - - -, f 5;
#X floatatom 321 165 5 0 0 0 - - -, f 5;
#X obj 384 12 loadbang;
#X msg 384 34 64;
#X msg 321 206 set \$1;
#X text 317 124 segment length;
#X obj 73 298 expr ((($f3-$f2)/$f4)*$f1)+$f2;
#X obj 183 336 + 0;
#X obj 471 93 inlet;
#X floatatom 471 115 5 0 0 0 - - -, f 5;
#X obj 471 133 * 64;
#X floatatom 471 155 5 0 0 0 - - -, f 5;
#X obj 321 184 t f f f;
#X text 467 74 startingPointNr;
#X obj 321 143 r segLength;
#X obj 161 253 t b f;
#X connect 0 0 9 0;
#X connect 1 0 2 0;
#X connect 1 1 4 0;
#X connect 2 0 3 0;
#X connect 3 0 6 0;
#X connect 4 0 3 1;
#X connect 5 0 3 1;
#X connect 6 0 22 0;
#X connect 6 1 5 0;
#X connect 6 2 23 0;
#X connect 7 0 1 0;
#X connect 8 0 7 0;
#X connect 8 1 22 2;
#X connect 11 0 15 0;
#X connect 12 0 16 0;
#X connect 15 0 31 0;
#X connect 16 0 8 0;
#X connect 17 0 28 0;
#X connect 18 0 19 0;
#X connect 19 0 17 0;
#X connect 20 0 7 0;
#X connect 22 0 0 0;
#X connect 23 0 10 0;
#X connect 24 0 25 0;
#X connect 25 0 26 0;
#X connect 26 0 27 0;
#X connect 27 0 23 1;
#X connect 28 0 20 0;
#X connect 28 1 22 3;
#X connect 28 2 26 1;
#X connect 30 0 17 0;
#X connect 31 0 7 0;
#X connect 31 1 22 1;
#X restore 821 262 pd LINEequation;
#X msg 523 242 2;
#X msg 663 242 3;
#X msg 793 242 4;
#X msg 923 242 5;
#X obj 464 161 t f f;
#X obj 514 161 t f f;
#X obj 564 161 t f f;
#X obj 614 161 t f f;
#X obj 464 19 r p5;
#X obj 514 19 r p6;
#X obj 564 19 r p7;
#X obj 614 19 r p8;
#X obj 664 19 r p9;
#X obj 476 57 r pP5;
#X obj 526 57 r pP6;
#X obj 576 57 r pP7;
#X obj 626 57 r pP8;
#X obj 676 57 r pP9;
#N canvas 517 196 695 444 LINEequation 0;
#X floatatom 73 320 12 0 0 0 - - -, f 12;
#X obj 73 186 t f b;
#X obj 73 208 until;
#X obj 73 230 f 0;
#X msg 130 208 0;
#X obj 96 273 + 1;
#X obj 73 252 t f f f;
#X msg 73 164 64;
#X obj 231 253 t b f;
#X obj 73 384 s valueToArray;
#X obj 183 384 s indexToArray;
#X obj 161 93 inlet;
#X obj 231 93 inlet;
#X text 227 74 endPoint;
#X text 147 74 startPoint;
#X floatatom 161 115 5 0 0 0 - - -, f 5;
#X floatatom 231 115 5 0 0 0 - - -, f 5;
#X floatatom 321 165 5 0 0 0 - - -, f 5;
#X obj 384 12 loadbang;
#X msg 384 34 64;
#X msg 321 206 set \$1;
#X text 317 124 segment length;
#X obj 73 298 expr ((($f3-$f2)/$f4)*$f1)+$f2;
#X obj 183 336 + 0;
#X obj 471 93 inlet;
#X floatatom 471 115 5 0 0 0 - - -, f 5;
#X obj 471 133 * 64;
#X floatatom 471 155 5 0 0 0 - - -, f 5;
#X obj 321 184 t f f f;
#X text 467 74 startingPointNr;
#X obj 321 143 r segLength;
#X obj 161 253 t b f;
#X connect 0 0 9 0;
#X connect 1 0 2 0;
#X connect 1 1 4 0;
#X connect 2 0 3 0;
#X connect 3 0 6 0;
#X connect 4 0 3 1;
#X connect 5 0 3 1;
#X connect 6 0 22 0;
#X connect 6 1 5 0;
#X connect 6 2 23 0;
#X connect 7 0 1 0;
#X connect 8 0 7 0;
#X connect 8 1 22 2;
#X connect 11 0 15 0;
#X connect 12 0 16 0;
#X connect 15 0 31 0;
#X connect 16 0 8 0;
#X connect 17 0 28 0;
#X connect 18 0 19 0;
#X connect 19 0 17 0;
#X connect 20 0 7 0;
#X connect 22 0 0 0;
#X connect 23 0 10 0;
#X connect 24 0 25 0;
#X connect 25 0 26 0;
#X connect 26 0 27 0;
#X connect 27 0 23 1;
#X connect 28 0 20 0;
#X connect 28 1 22 3;
#X connect 28 2 26 1;
#X connect 30 0 17 0;
#X connect 31 0 7 0;
#X connect 31 1 22 1;
#X restore 951 262 pd LINEequation;
#N canvas 517 196 695 444 LINEequation 0;
#X floatatom 73 320 12 0 0 0 - - -, f 12;
#X obj 73 186 t f b;
#X obj 73 208 until;
#X obj 73 230 f 0;
#X msg 130 208 0;
#X obj 96 273 + 1;
#X obj 73 252 t f f f;
#X msg 73 164 64;
#X obj 161 253 t b f;
#X obj 231 253 t b f;
#X obj 73 384 s valueToArray;
#X obj 183 384 s indexToArray;
#X obj 161 93 inlet;
#X obj 231 93 inlet;
#X text 227 74 endPoint;
#X text 147 74 startPoint;
#X floatatom 161 115 5 0 0 0 - - -, f 5;
#X floatatom 231 115 5 0 0 0 - - -, f 5;
#X floatatom 321 165 5 0 0 0 - - -, f 5;
#X obj 384 12 loadbang;
#X msg 384 34 64;
#X msg 321 206 set \$1;
#X text 317 124 segment length;
#X obj 73 298 expr ((($f3-$f2)/$f4)*$f1)+$f2;
#X obj 183 336 + 0;
#X obj 471 93 inlet;
#X floatatom 471 115 5 0 0 0 - - -, f 5;
#X obj 471 133 * 64;
#X floatatom 471 155 5 0 0 0 - - -, f 5;
#X obj 321 184 t f f f;
#X text 467 74 startingPointNr;
#X obj 321 143 r segLength;
#X connect 0 0 10 0;
#X connect 1 0 2 0;
#X connect 1 1 4 0;
#X connect 2 0 3 0;
#X connect 3 0 6 0;
#X connect 4 0 3 1;
#X connect 5 0 3 1;
#X connect 6 0 23 0;
#X connect 6 1 5 0;
#X connect 6 2 24 0;
#X connect 7 0 1 0;
#X connect 8 0 7 0;
#X connect 8 1 23 1;
#X connect 9 0 7 0;
#X connect 9 1 23 2;
#X connect 12 0 16 0;
#X connect 13 0 17 0;
#X connect 16 0 8 0;
#X connect 17 0 9 0;
#X connect 18 0 29 0;
#X connect 19 0 20 0;
#X connect 20 0 18 0;
#X connect 21 0 7 0;
#X connect 23 0 0 0;
#X connect 24 0 11 0;
#X connect 25 0 26 0;
#X connect 26 0 27 0;
#X connect 27 0 28 0;
#X connect 28 0 24 1;
#X connect 29 0 21 0;
#X connect 29 1 23 3;
#X connect 29 2 27 1;
#X connect 31 0 18 0;
#X restore 1081 262 pd LINEequation;
#X msg 1053 242 6;
#X msg 1183 242 7;
#X floatatom 56 135 5 0 0 0 - - -, f 5;
#X obj 56 154 s segLength;
#X msg 56 101 64;
#X obj 96 51 t b b;
#X obj 96 73 s segNr;
#X obj 383 220 r segNr;
#X obj 523 220 r segNr;
#X obj 663 220 r segNr;
#X obj 793 220 r segNr;
#X obj 923 220 r segNr;
#X obj 1053 220 r segNr;
#X obj 1183 220 r segNr;
#X connect 1 0 14 0;
#X connect 2 0 5 0;
#X connect 3 0 6 0;
#X connect 4 0 7 0;
#X connect 5 0 14 1;
#X connect 5 1 16 0;
#X connect 6 0 16 1;
#X connect 6 1 18 0;
#X connect 7 0 18 1;
#X connect 7 1 19 0;
#X connect 8 0 14 0;
#X connect 9 0 5 0;
#X connect 10 0 6 0;
#X connect 11 0 7 0;
#X connect 12 0 0 0;
#X connect 13 0 0 1;
#X connect 15 0 47 0;
#X connect 17 0 16 2;
#X connect 22 0 18 2;
#X connect 23 0 19 2;
#X connect 24 0 20 2;
#X connect 25 0 21 2;
#X connect 26 0 19 1;
#X connect 26 1 20 0;
#X connect 27 0 20 1;
#X connect 27 1 21 0;
#X connect 28 0 21 1;
#X connect 28 1 40 0;
#X connect 29 0 40 1;
#X connect 29 1 41 0;
#X connect 30 0 26 0;
#X connect 31 0 27 0;
#X connect 32 0 28 0;
#X connect 33 0 29 0;
#X connect 34 0 41 1;
#X connect 35 0 26 0;
#X connect 36 0 27 0;
#X connect 37 0 28 0;
#X connect 38 0 29 0;
#X connect 39 0 41 1;
#X connect 42 0 40 2;
#X connect 43 0 41 2;
#X connect 44 0 45 0;
#X connect 46 0 44 0;
#X connect 47 0 48 0;
#X connect 47 1 46 0;
#X connect 49 0 17 0;
#X connect 50 0 22 0;
#X connect 51 0 23 0;
#X connect 52 0 24 0;
#X connect 53 0 25 0;
#X connect 54 0 42 0;
#X connect 55 0 43 0;
#X restore 85 233 pd MATHS;
#X obj 409 20 r glitch;
#X obj 409 124 until;
#X obj 409 94 t f b;
#X msg 480 113 0;
#X obj 409 146 f 0;
#X obj 432 200 + 1;
#X obj 449 280 random 512;
#X obj 409 168 t b f b;
#X obj 347 237 random 100;
#X obj 347 259 * 0.01;
#X obj 347 281 - 0.5;
#X obj 347 311 tabwrite array1;
#X msg 409 72 3;
#X connect 2 0 14 0;
#X connect 3 0 6 0;
#X connect 4 0 3 0;
#X connect 4 1 5 0;
#X connect 5 0 6 1;
#X connect 6 0 9 0;
#X connect 7 0 6 1;
#X connect 8 0 13 1;
#X connect 9 0 10 0;
#X connect 9 1 7 0;
#X connect 9 2 8 0;
#X connect 10 0 11 0;
#X connect 11 0 12 0;
#X connect 12 0 13 0;
#X connect 14 0 4 0;
#X restore 87 535 pd WAVETABLE;
#N canvas 1 78 810 656 FILTERS 0;
#X floatatom 196 74 7 0 0 0 cutoff - -, f 7;
#X floatatom 283 162 5 0 0 0 - - -, f 5;
#X obj 11 461 *~;
#X obj 101 461 *~;
#X obj 199 461 *~;
#X obj 369 222 r gFilter_type;
#X msg 333 368 \$1 5;
#X obj 333 392 line~;
#X msg 383 368 \$1 5;
#X obj 383 392 line~;
#X msg 433 368 \$1 5;
#X obj 433 392 line~;
#X msg 369 300 1;
#X msg 379 322 0;
#X msg 409 300 1;
#X msg 419 322 0;
#X msg 449 300 1;
#X msg 459 322 0;
#N canvas 1 78 467 307 CUTOFF 0;
#X obj 190 151 t b f;
#X obj 190 87 r gCutoff;
#X obj 62 247 s cutoff;
#X obj 290 83 r gFilter_type;
#X floatatom 62 103 5 0 0 0 - - -, f 5;
#X obj 62 79 r note;
#X obj 62 124 +;
#X obj 62 148 mtof;
#X floatatom 62 172 7 0 0 0 - - -, f 7;
#X obj 290 107 sel 2;
#X obj 190 120 +;
#X obj 290 155 t b f;
#X msg 320 131 0;
#X text 289 43 add +2 to "note" when \; HP filter is selected \;;
#X obj 62 193 min 15000;
#X msg 290 131 5;
#X obj 62 217 max 20;
#X floatatom 220 180 5 0 0 0 - - -, f 5;
#X connect 0 0 6 0;
#X connect 0 1 6 1;
#X connect 0 1 17 0;
#X connect 1 0 10 0;
#X connect 3 0 9 0;
#X connect 4 0 6 0;
#X connect 5 0 4 0;
#X connect 6 0 7 0;
#X connect 7 0 8 0;
#X connect 8 0 14 0;
#X connect 9 0 15 0;
#X connect 9 1 12 0;
#X connect 10 0 0 0;
#X connect 11 0 10 0;
#X connect 11 1 10 1;
#X connect 12 0 11 0;
#X connect 14 0 16 0;
#X connect 15 0 11 0;
#X connect 16 0 2 0;
#X restore 18 147 pd CUTOFF;
#X obj 283 36 r gQ;
#X obj 91 33 inlet~;
#X obj 91 327 cyclone/svf~;
#X obj 196 119 line~;
#X obj 91 655 outlet~;
#X obj 371 33 inlet~;
#X text 89 9 audio in;
#X text 369 9 LFO in;
#X obj 471 33 inlet~;
#X text 469 9 EG in;
#X msg 579 254 \$1 5;
#X obj 579 278 line~;
#X floatatom 579 207 5 0 0 0 - - -, f 5;
#X obj 579 177 - 1;
#X obj 471 137 *~;
#X obj 579 153 r gEg_filter;
#X obj 196 261 +~;
#X obj 91 581 lop~ 16000;
#X obj 369 246 sel 2 1 0;
#X obj 196 207 clip~ 20 15000;
#X obj 91 605 hip~ 10;
#X obj 91 551 lop~ 18000;
#X obj 166 163 +~;
#X obj 581 110 line~;
#X obj 196 26 r cutoff;
#X obj 196 48 t f f;
#X obj 326 97 *~;
#X obj 166 185 *~;
#X obj 206 185 *~;
#X obj 581 26 r gLfo_filter;
#X obj 581 48 sel 0;
#X msg 581 90 1 5;
#X msg 611 90 0 5;
#X obj 629 63 b;
#X obj 521 110 line~;
#X msg 521 90 1 5;
#X msg 551 90 0 5;
#X obj 552 499 pack 0 5;
#X obj 552 521 line~;
#X floatatom 640 366 5 0 0 0 - - -, f 5;
#X obj 640 344 expr 1-($f1/15000);
#X msg 196 95 \$1 25;
#X msg 283 181 \$1 25;
#X obj 234 295 line;
#X connect 0 0 60 0;
#X connect 1 0 61 0;
#X connect 2 0 40 0;
#X connect 3 0 40 0;
#X connect 4 0 40 0;
#X connect 5 0 37 0;
#X connect 6 0 7 0;
#X connect 7 0 2 1;
#X connect 8 0 9 0;
#X connect 9 0 3 1;
#X connect 10 0 11 0;
#X connect 11 0 4 1;
#X connect 12 0 6 0;
#X connect 13 0 8 0;
#X connect 13 0 10 0;
#X connect 14 0 8 0;
#X connect 15 0 6 0;
#X connect 15 0 10 0;
#X connect 16 0 10 0;
#X connect 17 0 6 0;
#X connect 17 0 8 0;
#X connect 19 0 1 0;
#X connect 20 0 21 0;
#X connect 21 0 2 0;
#X connect 21 1 4 0;
#X connect 21 2 3 0;
#X connect 22 0 41 0;
#X connect 22 0 47 0;
#X connect 22 0 45 0;
#X connect 24 0 45 1;
#X connect 27 0 33 0;
#X connect 29 0 30 0;
#X connect 30 0 33 1;
#X connect 31 0 29 0;
#X connect 32 0 31 0;
#X connect 33 0 35 1;
#X connect 34 0 32 0;
#X connect 35 0 21 1;
#X connect 36 0 39 0;
#X connect 37 0 12 0;
#X connect 37 0 13 0;
#X connect 37 1 14 0;
#X connect 37 1 15 0;
#X connect 37 2 16 0;
#X connect 37 2 17 0;
#X connect 38 0 35 0;
#X connect 39 0 23 0;
#X connect 40 0 36 0;
#X connect 41 0 46 0;
#X connect 42 0 47 1;
#X connect 43 0 44 0;
#X connect 44 0 0 0;
#X connect 44 1 59 0;
#X connect 45 0 41 1;
#X connect 46 0 38 0;
#X connect 47 0 38 0;
#X connect 48 0 49 0;
#X connect 49 0 50 0;
#X connect 49 0 55 0;
#X connect 49 1 52 0;
#X connect 50 0 42 0;
#X connect 51 0 42 0;
#X connect 52 0 51 0;
#X connect 52 0 54 0;
#X connect 53 0 46 1;
#X connect 54 0 53 0;
#X connect 55 0 53 0;
#X connect 56 0 57 0;
#X connect 58 0 56 0;
#X connect 59 0 58 0;
#X connect 60 0 22 0;
#X connect 61 0 62 0;
#X connect 62 0 21 2;
#X restore 599 724 pd FILTERS;
#X obj 597 360 t f f f f;
#X obj 657 404 s note;
#X obj 581 138 hsl 128 15 -25 70 0 0 gCutoff empty Cutoff 5 8 0 10
-260097 -1 -1 3600 0;
#X obj 715 137 vradio 15 1 0 3 gFilter_type empty filterType 0 -8 0
10 -260097 -1 -1 2;
#N canvas 341 196 740 538 OVERSAMPLE 0;
#X obj 21 339 *~ 0.125;
#X obj 21 362 rzero~ -1;
#X obj 21 385 rzero~ -1;
#X obj 21 408 rzero~ -1;
#X obj 21 66 phasor~;
#X obj 204 29 block~ 1024 1 16;
#X obj 21 442 outlet~;
#X obj 20 236 rpole~ 0.87467;
#X obj 20 213 *~ 0.12532;
#X obj 20 259 *~ 0.01668;
#X obj 20 282 cpole~ 0.9293 0.10812;
#X obj 20 308 cpole~ 0.9293 -0.10812;
#X obj 21 31 inlet~;
#X obj 21 97 *~ 511;
#X obj 21 129 tabread~ array1;
#X obj 243 170 tabread~ window_1;
#X obj 243 115 *~ 509;
#X obj 243 137 +~ 1;
#X obj 21 171 *~;
#N canvas 1 78 1166 628 LFO 0;
#X obj 26 206 osc~;
#X msg 26 140 \$1 5;
#X obj 26 164 line~;
#X obj 115 126 phasor~;
#X obj 115 150 *~ -2;
#X obj 283 393 *~;
#X obj 324 393 *~;
#X obj 317 42 r gLfo_type;
#X floatatom 317 66 5 0 0 0 - - -, f 5;
#X obj 317 87 sel 0 1 2;
#X msg 317 131 1;
#X obj 364 393 *~;
#X msg 327 161 0;
#X msg 357 131 1;
#X msg 367 161 0;
#X msg 397 131 1;
#X msg 407 161 0;
#X obj 207 176 samphold~;
#X msg 280 254 \$1 5;
#X obj 280 278 line~;
#X msg 350 254 \$1 5;
#X obj 350 278 line~;
#X msg 410 254 \$1 5;
#X obj 410 278 line~;
#X floatatom 26 119 5 0 0 1 LFO_freq - -, f 5;
#X obj 115 174 +~ 1;
#X obj 284 509 +~ 0.25;
#X obj 284 533 *~;
#X msg 470 184 \$1 5;
#X obj 470 208 line~;
#X obj 470 83 r gPwm;
#X floatatom 470 107 5 0 0 0 - - -, f 5;
#X obj 284 557 outlet~;
#X text 283 584 pwm out;
#X obj 26 11 r gLfo_freq;
#X obj 207 76 noise~;
#X obj 284 485 *~ 0.25;
#X obj 464 557 outlet~;
#X text 463 584 to FILTER;
#X obj 463 358 *~ 0.5;
#X obj 463 382 +~ 0.5;
#X msg 600 224 \$1 5;
#X obj 600 248 line~;
#X msg 600 374 \$1 5;
#X obj 600 398 line~;
#X obj 600 83 r gLfo_filter;
#X floatatom 600 137 5 0 0 0 - - -, f 5;
#X obj 564 557 outlet~;
#X obj 564 491 *~;
#X text 563 584 to TUNE;
#X msg 790 184 \$1 5;
#X obj 790 208 line~;
#X floatatom 790 137 5 0 0 0 - - -, f 5;
#X obj 790 107 - 1;
#X obj 790 83 r gLfo_tune;
#X obj 788 404 +;
#X obj 866 320 t b f;
#X floatatom 788 428 5 0 0 0 - - -, f 5;
#X obj 788 449 mtof;
#X obj 871 401 mtof;
#X obj 788 473 -;
#X floatatom 788 497 5 0 0 0 - - -, f 5;
#X obj 788 329 r note;
#X floatatom 788 353 5 0 0 0 - - -, f 5;
#X obj 788 374 t f f;
#X obj 564 515 *~;
#X msg 630 494 \$1 5;
#X obj 630 518 line~;
#X obj 866 296 * 2;
#X text 723 584 to AMP;
#X floatatom 979 330 5 0 0 0 - - -, f 5;
#X msg 979 351 \$1 5;
#X obj 979 375 line~;
#X obj 979 290 - 1;
#X obj 979 266 r gLfo_amp;
#X obj 724 497 *~;
#X obj 724 561 outlet~;
#X obj 1071 352 sig~ 1;
#X obj 1071 376 -~;
#X obj 724 521 +~;
#X obj 600 422 *~ 0.5;
#X obj 600 302 - 20;
#X obj 600 326 abs;
#X floatatom 600 350 5 0 0 0 - - -, f 5;
#X obj 600 275 r cutoff;
#X obj 115 198 lop~ 80;
#X obj 464 525 lop~ 50;
#X obj 463 424 *~;
#X obj 600 198 *;
#X obj 600 156 t f f f;
#X obj 657 181 sel 0;
#X msg 657 203 1 5;
#X obj 657 225 line~;
#X msg 697 203 0 5;
#X obj 706 179 b;
#X obj 131 21 r vel;
#X obj 131 53 != 0;
#X obj 131 75 sel 1;
#X msg 131 97 0;
#X connect 0 0 5 0;
#X connect 1 0 2 0;
#X connect 2 0 0 0;
#X connect 2 0 3 0;
#X connect 3 0 4 0;
#X connect 3 0 17 1;
#X connect 4 0 25 0;
#X connect 5 0 36 0;
#X connect 5 0 39 0;
#X connect 5 0 48 0;
#X connect 5 0 87 0;
#X connect 6 0 36 0;
#X connect 6 0 39 0;
#X connect 6 0 48 0;
#X connect 6 0 87 0;
#X connect 7 0 8 0;
#X connect 8 0 9 0;
#X connect 9 0 10 0;
#X connect 9 0 12 0;
#X connect 9 1 13 0;
#X connect 9 1 14 0;
#X connect 9 2 15 0;
#X connect 9 2 16 0;
#X connect 10 0 18 0;
#X connect 11 0 36 0;
#X connect 11 0 39 0;
#X connect 11 0 48 0;
#X connect 11 0 87 0;
#X connect 12 0 20 0;
#X connect 12 0 22 0;
#X connect 13 0 20 0;
#X connect 14 0 18 0;
#X connect 14 0 22 0;
#X connect 15 0 22 0;
#X connect 16 0 20 0;
#X connect 16 0 18 0;
#X connect 17 0 11 0;
#X connect 18 0 19 0;
#X connect 19 0 5 1;
#X connect 20 0 21 0;
#X connect 21 0 6 1;
#X connect 22 0 23 0;
#X connect 23 0 11 1;
#X connect 24 0 1 0;
#X connect 25 0 85 0;
#X connect 26 0 27 0;
#X connect 27 0 32 0;
#X connect 28 0 29 0;
#X connect 29 0 27 1;
#X connect 30 0 31 0;
#X connect 31 0 28 0;
#X connect 34 0 24 0;
#X connect 35 0 17 0;
#X connect 36 0 26 0;
#X connect 39 0 40 0;
#X connect 40 0 75 0;
#X connect 41 0 42 0;
#X connect 42 0 87 1;
#X connect 43 0 44 0;
#X connect 44 0 80 0;
#X connect 45 0 46 0;
#X connect 46 0 89 0;
#X connect 48 0 65 0;
#X connect 50 0 51 0;
#X connect 51 0 48 1;
#X connect 52 0 50 0;
#X connect 52 0 68 0;
#X connect 53 0 52 0;
#X connect 54 0 53 0;
#X connect 55 0 57 0;
#X connect 56 0 55 0;
#X connect 56 1 55 1;
#X connect 57 0 58 0;
#X connect 58 0 60 0;
#X connect 59 0 60 1;
#X connect 60 0 61 0;
#X connect 61 0 66 0;
#X connect 62 0 63 0;
#X connect 63 0 64 0;
#X connect 64 0 55 0;
#X connect 64 1 59 0;
#X connect 65 0 47 0;
#X connect 66 0 67 0;
#X connect 67 0 65 1;
#X connect 68 0 56 0;
#X connect 70 0 71 0;
#X connect 71 0 72 0;
#X connect 72 0 78 1;
#X connect 72 0 75 1;
#X connect 73 0 70 0;
#X connect 74 0 73 0;
#X connect 75 0 79 0;
#X connect 77 0 78 0;
#X connect 78 0 79 1;
#X connect 79 0 76 0;
#X connect 81 0 82 0;
#X connect 82 0 83 0;
#X connect 83 0 43 0;
#X connect 84 0 81 0;
#X connect 85 0 6 0;
#X connect 86 0 37 0;
#X connect 87 0 86 0;
#X connect 88 0 41 0;
#X connect 89 0 90 0;
#X connect 89 1 88 0;
#X connect 89 2 88 1;
#X connect 90 0 91 0;
#X connect 90 1 94 0;
#X connect 91 0 92 0;
#X connect 92 0 37 0;
#X connect 93 0 92 0;
#X connect 94 0 93 0;
#X connect 95 0 96 0;
#X connect 96 0 97 0;
#X connect 97 0 98 0;
#X connect 98 0 3 1;
#X connect 98 0 0 1;
#X restore 423 67 pd LFO;
#X obj 436 119 outlet~;
#X connect 0 0 1 0;
#X connect 1 0 2 0;
#X connect 2 0 3 0;
#X connect 3 0 6 0;
#X connect 4 0 13 0;
#X connect 4 0 16 0;
#X connect 7 0 9 0;
#X connect 8 0 7 0;
#X connect 9 0 10 0;
#X connect 10 0 11 0;
#X connect 10 1 11 1;
#X connect 11 0 0 0;
#X connect 12 0 4 0;
#X connect 13 0 14 0;
#X connect 14 0 18 0;
#X connect 15 0 18 1;
#X connect 16 0 17 0;
#X connect 17 0 15 0;
#X connect 18 0 8 0;
#X connect 19 1 20 0;
#X restore 598 527 pd OVERSAMPLE;
#X obj 581 56 hsl 128 15 0 25 0 0 gLfo_freq empty LfoFreq 5 8 0 10
-260097 -1 -1 737 0;
#X obj 581 77 hsl 128 15 0 1 0 0 gLfo_filter empty LfoToFilter 5 8
0 10 -260097 -1 -1 0 0;
#X obj 715 56 vradio 15 1 0 3 gLfo_type empty LfoType 0 -8 0 10 -260097
-1 -1 0;
#X obj 671 363 t f f;
#X obj 703 385 s vel;
#X obj 203 58 bng 25 250 50 0 glitch empty glitch 0 -8 0 10 -260097
-1 -1;
#X obj 92 379 f;
#X obj 142 379 f;
#X obj 192 379 f;
#X obj 242 379 f;
#X obj 292 379 f;
#X obj 200 292 r noGlitch;
#X obj 203 108 bng 25 250 50 0 noGlitch empty noGLitch 0 -8 0 10 -260097
-1 -1;
#N canvas 1 78 1351 656 cLFO 0;
#X obj 583 156 tgl 15 0 empty empty empty 17 7 0 10 -262144 -1 -1 0
1;
#X obj 3 341 sin;
#X obj 3 314 * 6.28319;
#X obj 3 288 / 360;
#X floatatom 3 363 5 0 0 0 - - -, f 5;
#X floatatom 75 430 5 0 0 0 - - -, f 5;
#X obj 75 475 +;
#X obj 75 449 t b f;
#X obj 3 412 *;
#X obj 554 45 hsl 128 15 0 1 0 0 empty empty empty -2 -8 0 10 -262144
-1 -1 0 0;
#X floatatom 551 63 5 0 0 0 - - -, f 5;
#X obj 52 336 r cLfoDepth;
#X floatatom 52 358 5 0 0 0 - - -, f 5;
#X floatatom 215 430 5 0 0 0 - - -, f 5;
#X obj 215 475 +;
#X obj 215 449 t b f;
#X obj 143 412 *;
#X obj 192 336 r cLfoDepth;
#X floatatom 192 358 5 0 0 0 - - -, f 5;
#X obj 75 408 r gGp1;
#X obj 215 408 r gGp2;
#X floatatom 365 430 5 0 0 0 - - -, f 5;
#X obj 365 475 +;
#X obj 365 449 t b f;
#X obj 293 412 *;
#X obj 342 336 r cLfoDepth;
#X floatatom 342 358 5 0 0 0 - - -, f 5;
#X floatatom 535 430 5 0 0 0 - - -, f 5;
#X obj 535 475 +;
#X obj 535 449 t b f;
#X obj 463 412 *;
#X obj 512 336 r cLfoDepth;
#X floatatom 512 358 5 0 0 0 - - -, f 5;
#X floatatom 685 430 5 0 0 0 - - -, f 5;
#X obj 685 475 +;
#X obj 685 449 t b f;
#X obj 613 412 *;
#X obj 662 336 r cLfoDepth;
#X floatatom 662 358 5 0 0 0 - - -, f 5;
#X obj 365 408 r gGp3;
#X obj 535 408 r gGp4;
#X obj 685 408 r gGp5;
#X obj 143 336 sin;
#X floatatom 143 358 5 0 0 0 - - -, f 5;
#X obj 293 336 sin;
#X floatatom 293 358 5 0 0 0 - - -, f 5;
#X obj 443 336 sin;
#X floatatom 443 358 5 0 0 0 - - -, f 5;
#X obj 613 336 sin;
#X floatatom 613 358 5 0 0 0 - - -, f 5;
#X obj 143 317 + 0.5;
#X obj 293 316 + 1.5;
#X obj 443 316 + 3;
#X obj 613 316 + 4.5;
#X obj 75 527 clip -1 1;
#X obj 215 527 clip -1 1;
#X obj 365 527 clip -1 1;
#X obj 535 527 clip -1 1;
#X obj 685 527 clip -1 1;
#X obj 75 497 change;
#X obj 215 497 change;
#X obj 365 497 change;
#X obj 535 497 change;
#X obj 685 497 change;
#X obj 551 18 r gC_LFOdepth;
#X obj 143 295 * 6.28319;
#X obj 143 269 / 360;
#X obj 293 285 * 6.28319;
#X obj 293 259 / 360;
#X obj 443 295 * 6.28319;
#X obj 443 269 / 360;
#X obj 613 290 * 6.28319;
#X obj 613 264 / 360;
#X obj 583 128 != 0;
#X obj 551 102 s cLfoDepth;
#X obj 551 82 t f f;
#X obj 854 33 inlet~;
#X text 857 14 ADSR in;
#X obj 854 85 snapshot~;
#X obj 956 36 tgl 15 0 empty empty empty 17 7 0 10 -262144 -1 -1 1
1;
#X obj 1077 11 loadbang;
#X msg 1077 33 1;
#X floatatom 854 149 5 0 0 0 - - -, f 5;
#X floatatom 75 547 5 0 0 0 - - -, f 5;
#X floatatom 215 547 5 0 0 0 - - -, f 5;
#X floatatom 365 547 5 0 0 0 - - -, f 5;
#X floatatom 535 547 5 0 0 0 - - -, f 5;
#X floatatom 685 547 5 0 0 0 - - -, f 5;
#X obj 854 168 spigot;
#X obj 1027 105 tgl 15 0 empty empty empty 17 7 0 10 -262144 -1 -1
0 1;
#X obj 1027 125 t f f;
#X obj 1027 151 expr 1-$f1;
#X obj 854 127 line 0 20;
#X obj 854 107 pack 0 100;
#X obj 956 56 metro 10;
#X obj 3 436 * 1;
#X obj 143 436 * 1;
#X obj 293 436 * 1;
#X obj 463 436 * 1;
#X obj 613 436 * 1;
#X obj 1027 83 r adsr2cLfo;
#X floatatom 835 430 5 0 0 0 - - -, f 5;
#X obj 835 475 +;
#X obj 835 449 t b f;
#X obj 763 412 *;
#X obj 812 336 r cLfoDepth;
#X floatatom 812 358 5 0 0 0 - - -, f 5;
#X obj 763 336 sin;
#X floatatom 763 358 5 0 0 0 - - -, f 5;
#X obj 763 316 + 4.5;
#X obj 835 527 clip -1 1;
#X obj 835 497 change;
#X obj 763 290 * 6.28319;
#X obj 763 264 / 360;
#X floatatom 835 547 5 0 0 0 - - -, f 5;
#X obj 763 436 * 1;
#X floatatom 975 430 5 0 0 0 - - -, f 5;
#X obj 975 475 +;
#X obj 975 449 t b f;
#X obj 903 412 *;
#X obj 952 336 r cLfoDepth;
#X floatatom 952 358 5 0 0 0 - - -, f 5;
#X obj 903 336 sin;
#X floatatom 903 358 5 0 0 0 - - -, f 5;
#X obj 903 316 + 4.5;
#X obj 975 527 clip -1 1;
#X obj 975 497 change;
#X obj 903 290 * 6.28319;
#X obj 903 264 / 360;
#X floatatom 975 547 5 0 0 0 - - -, f 5;
#X obj 903 436 * 1;
#X floatatom 1115 430 5 0 0 0 - - -, f 5;
#X obj 1115 475 +;
#X obj 1115 449 t b f;
#X obj 1043 412 *;
#X obj 1092 336 r cLfoDepth;
#X floatatom 1092 358 5 0 0 0 - - -, f 5;
#X obj 1043 336 sin;
#X floatatom 1043 358 5 0 0 0 - - -, f 5;
#X obj 1043 316 + 4.5;
#X obj 1115 527 clip -1 1;
#X obj 1115 497 change;
#X obj 1043 290 * 6.28319;
#X obj 1043 264 / 360;
#X floatatom 1115 547 5 0 0 0 - - -, f 5;
#X obj 1043 436 * 1;
#X floatatom 1255 430 5 0 0 0 - - -, f 5;
#X obj 1255 475 +;
#X obj 1255 449 t b f;
#X obj 1183 412 *;
#X obj 1232 336 r cLfoDepth;
#X floatatom 1232 358 5 0 0 0 - - -, f 5;
#X obj 1183 336 sin;
#X floatatom 1183 358 5 0 0 0 - - -, f 5;
#X obj 1183 316 + 4.5;
#X obj 1255 527 clip -1 1;
#X obj 1255 497 change;
#X obj 1183 290 * 6.28319;
#X obj 1183 264 / 360;
#X floatatom 1255 547 5 0 0 0 - - -, f 5;
#X obj 1183 436 * 1;
#X obj 854 190 t f f f f f f f f f;
#X obj 835 408 r gGp6;
#X obj 975 408 r gGp7;
#X obj 1115 408 r gGp8;
#X obj 1255 408 r gGp9;
#N canvas 1 78 1351 656 METROs 0;
#X obj 14 132 t f f;
#X obj 14 154 metro 50;
#X obj 14 236 f 0;
#X obj 52 181 sel 1;
#X msg 52 203 0;
#X obj 54 290 + 1;
#X floatatom 91 136 5 0 0 0 - - -, f 5;
#X floatatom 99 307 5 0 0 0 - - -, f 5;
#X obj 34 311 sel 360;
#X obj 14 258 t f f f f;
#X obj 99 240 sel 0;
#X obj 99 263 random 15;
#X obj 99 285 + 1;
#X obj 99 218 % 50;
#X obj 588 9 inlet;
#X obj 14 377 outlet;
#X obj 174 381 outlet;
#X obj 334 381 outlet;
#X obj 494 381 outlet;
#X obj 654 371 outlet;
#X obj 174 132 t f f;
#X obj 174 154 metro 50;
#X obj 174 236 f 0;
#X obj 212 181 sel 1;
#X msg 212 203 0;
#X obj 214 290 + 1;
#X floatatom 251 136 5 0 0 0 - - -, f 5;
#X floatatom 259 307 5 0 0 0 - - -, f 5;
#X obj 194 311 sel 360;
#X obj 174 258 t f f f f;
#X obj 259 240 sel 0;
#X obj 259 263 random 15;
#X obj 259 285 + 1;
#X obj 259 218 % 50;
#X obj 334 132 t f f;
#X obj 334 154 metro 50;
#X obj 334 236 f 0;
#X obj 372 181 sel 1;
#X msg 372 203 0;
#X obj 374 290 + 1;
#X floatatom 411 136 5 0 0 0 - - -, f 5;
#X floatatom 419 307 5 0 0 0 - - -, f 5;
#X obj 354 311 sel 360;
#X obj 334 258 t f f f f;
#X obj 419 240 sel 0;
#X obj 419 263 random 15;
#X obj 419 285 + 1;
#X obj 419 218 % 50;
#X obj 494 132 t f f;
#X obj 494 154 metro 50;
#X obj 494 236 f 0;
#X obj 532 181 sel 1;
#X msg 532 203 0;
#X obj 534 290 + 1;
#X floatatom 571 136 5 0 0 0 - - -, f 5;
#X floatatom 579 307 5 0 0 0 - - -, f 5;
#X obj 514 311 sel 360;
#X obj 494 258 t f f f f;
#X obj 579 240 sel 0;
#X obj 579 263 random 15;
#X obj 579 285 + 1;
#X obj 579 218 % 50;
#X obj 654 132 t f f;
#X obj 654 154 metro 50;
#X obj 654 236 f 0;
#X obj 692 181 sel 1;
#X msg 692 203 0;
#X obj 694 290 + 1;
#X floatatom 731 136 5 0 0 0 - - -, f 5;
#X floatatom 739 307 5 0 0 0 - - -, f 5;
#X obj 674 311 sel 360;
#X obj 654 258 t f f f f;
#X obj 739 240 sel 0;
#X obj 739 263 random 15;
#X obj 739 285 + 1;
#X obj 739 218 % 50;
#X obj 588 31 t f f f f f f f f f;
#X obj 814 381 outlet;
#X obj 1004 381 outlet;
#X obj 1184 381 outlet;
#X obj 1364 371 outlet;
#X obj 814 132 t f f;
#X obj 814 154 metro 50;
#X obj 814 236 f 0;
#X obj 852 181 sel 1;
#X msg 852 203 0;
#X obj 854 290 + 1;
#X floatatom 891 136 5 0 0 0 - - -, f 5;
#X floatatom 899 307 5 0 0 0 - - -, f 5;
#X obj 834 311 sel 360;
#X obj 814 258 t f f f f;
#X obj 899 240 sel 0;
#X obj 899 263 random 15;
#X obj 899 285 + 1;
#X obj 899 218 % 50;
#X obj 1004 132 t f f;
#X obj 1004 154 metro 50;
#X obj 1004 236 f 0;
#X obj 1042 181 sel 1;
#X msg 1042 203 0;
#X obj 1044 290 + 1;
#X floatatom 1081 136 5 0 0 0 - - -, f 5;
#X floatatom 1089 307 5 0 0 0 - - -, f 5;
#X obj 1024 311 sel 360;
#X obj 1004 258 t f f f f;
#X obj 1089 240 sel 0;
#X obj 1089 263 random 15;
#X obj 1089 285 + 1;
#X obj 1089 218 % 50;
#X obj 1184 132 t f f;
#X obj 1184 154 metro 50;
#X obj 1184 236 f 0;
#X obj 1222 181 sel 1;
#X msg 1222 203 0;
#X obj 1224 290 + 1;
#X floatatom 1261 136 5 0 0 0 - - -, f 5;
#X floatatom 1269 307 5 0 0 0 - - -, f 5;
#X obj 1204 311 sel 360;
#X obj 1184 258 t f f f f;
#X obj 1269 240 sel 0;
#X obj 1269 263 random 15;
#X obj 1269 285 + 1;
#X obj 1269 218 % 50;
#X obj 1364 132 t f f;
#X obj 1364 154 metro 50;
#X obj 1364 236 f 0;
#X obj 1402 181 sel 1;
#X msg 1402 203 0;
#X obj 1404 290 + 1;
#X floatatom 1441 136 5 0 0 0 - - -, f 5;
#X floatatom 1449 307 5 0 0 0 - - -, f 5;
#X obj 1384 311 sel 360;
#X obj 1364 258 t f f f f;
#X obj 1449 240 sel 0;
#X obj 1449 263 random 15;
#X obj 1449 285 + 1;
#X obj 1449 218 % 50;
#X connect 0 0 1 0;
#X connect 0 1 3 0;
#X connect 1 0 2 0;
#X connect 2 0 9 0;
#X connect 3 0 4 0;
#X connect 4 0 2 1;
#X connect 5 0 2 1;
#X connect 6 0 1 1;
#X connect 7 0 6 0;
#X connect 8 0 4 0;
#X connect 9 0 15 0;
#X connect 9 1 8 0;
#X connect 9 2 5 0;
#X connect 9 3 13 0;
#X connect 10 0 11 0;
#X connect 11 0 12 0;
#X connect 12 0 7 0;
#X connect 13 0 10 0;
#X connect 14 0 76 0;
#X connect 20 0 21 0;
#X connect 20 1 23 0;
#X connect 21 0 22 0;
#X connect 22 0 29 0;
#X connect 23 0 24 0;
#X connect 24 0 22 1;
#X connect 25 0 22 1;
#X connect 26 0 21 1;
#X connect 27 0 26 0;
#X connect 28 0 24 0;
#X connect 29 0 16 0;
#X connect 29 1 28 0;
#X connect 29 2 25 0;
#X connect 29 3 33 0;
#X connect 30 0 31 0;
#X connect 31 0 32 0;
#X connect 32 0 27 0;
#X connect 33 0 30 0;
#X connect 34 0 35 0;
#X connect 34 1 37 0;
#X connect 35 0 36 0;
#X connect 36 0 43 0;
#X connect 37 0 38 0;
#X connect 38 0 36 1;
#X connect 39 0 36 1;
#X connect 40 0 35 1;
#X connect 41 0 40 0;
#X connect 42 0 38 0;
#X connect 43 0 17 0;
#X connect 43 1 42 0;
#X connect 43 2 39 0;
#X connect 43 3 47 0;
#X connect 44 0 45 0;
#X connect 45 0 46 0;
#X connect 46 0 41 0;
#X connect 47 0 44 0;
#X connect 48 0 49 0;
#X connect 48 1 51 0;
#X connect 49 0 50 0;
#X connect 50 0 57 0;
#X connect 51 0 52 0;
#X connect 52 0 50 1;
#X connect 53 0 50 1;
#X connect 54 0 49 1;
#X connect 55 0 54 0;
#X connect 56 0 52 0;
#X connect 57 0 18 0;
#X connect 57 1 56 0;
#X connect 57 2 53 0;
#X connect 57 3 61 0;
#X connect 58 0 59 0;
#X connect 59 0 60 0;
#X connect 60 0 55 0;
#X connect 61 0 58 0;
#X connect 62 0 63 0;
#X connect 62 1 65 0;
#X connect 63 0 64 0;
#X connect 64 0 71 0;
#X connect 65 0 66 0;
#X connect 66 0 64 1;
#X connect 67 0 64 1;
#X connect 68 0 63 1;
#X connect 69 0 68 0;
#X connect 70 0 66 0;
#X connect 71 0 19 0;
#X connect 71 1 70 0;
#X connect 71 2 67 0;
#X connect 71 3 75 0;
#X connect 72 0 73 0;
#X connect 73 0 74 0;
#X connect 74 0 69 0;
#X connect 75 0 72 0;
#X connect 76 0 0 0;
#X connect 76 1 20 0;
#X connect 76 2 34 0;
#X connect 76 3 48 0;
#X connect 76 4 62 0;
#X connect 76 5 81 0;
#X connect 76 6 95 0;
#X connect 76 7 109 0;
#X connect 76 8 123 0;
#X connect 81 0 82 0;
#X connect 81 1 84 0;
#X connect 82 0 83 0;
#X connect 83 0 90 0;
#X connect 84 0 85 0;
#X connect 85 0 83 1;
#X connect 86 0 83 1;
#X connect 87 0 82 1;
#X connect 88 0 87 0;
#X connect 89 0 85 0;
#X connect 90 0 77 0;
#X connect 90 1 89 0;
#X connect 90 2 86 0;
#X connect 90 3 94 0;
#X connect 91 0 92 0;
#X connect 92 0 93 0;
#X connect 93 0 88 0;
#X connect 94 0 91 0;
#X connect 95 0 96 0;
#X connect 95 1 98 0;
#X connect 96 0 97 0;
#X connect 97 0 104 0;
#X connect 98 0 99 0;
#X connect 99 0 97 1;
#X connect 100 0 97 1;
#X connect 101 0 96 1;
#X connect 102 0 101 0;
#X connect 103 0 99 0;
#X connect 104 0 78 0;
#X connect 104 1 103 0;
#X connect 104 2 100 0;
#X connect 104 3 108 0;
#X connect 105 0 106 0;
#X connect 106 0 107 0;
#X connect 107 0 102 0;
#X connect 108 0 105 0;
#X connect 109 0 110 0;
#X connect 109 1 112 0;
#X connect 110 0 111 0;
#X connect 111 0 118 0;
#X connect 112 0 113 0;
#X connect 113 0 111 1;
#X connect 114 0 111 1;
#X connect 115 0 110 1;
#X connect 116 0 115 0;
#X connect 117 0 113 0;
#X connect 118 0 79 0;
#X connect 118 1 117 0;
#X connect 118 2 114 0;
#X connect 118 3 122 0;
#X connect 119 0 120 0;
#X connect 120 0 121 0;
#X connect 121 0 116 0;
#X connect 122 0 119 0;
#X connect 123 0 124 0;
#X connect 123 1 126 0;
#X connect 124 0 125 0;
#X connect 125 0 132 0;
#X connect 126 0 127 0;
#X connect 127 0 125 1;
#X connect 128 0 125 1;
#X connect 129 0 124 1;
#X connect 130 0 129 0;
#X connect 131 0 127 0;
#X connect 132 0 80 0;
#X connect 132 1 131 0;
#X connect 132 2 128 0;
#X connect 132 3 136 0;
#X connect 133 0 134 0;
#X connect 134 0 135 0;
#X connect 135 0 130 0;
#X connect 136 0 133 0;
#X restore 583 179 pd METROs -----------;
#X text 89 31 control LFO;
#X obj 115 596 s gP1;
#X obj 255 596 s gP2;
#X obj 725 596 s gP5;
#X obj 575 596 s gP4;
#X obj 405 596 s gP3;
#X obj 75 596 s pP1;
#X obj 215 596 s pP2;
#X obj 365 596 s pP3;
#X obj 535 596 s pP4;
#X obj 685 596 s pP5;
#X obj 835 596 s pP6;
#X obj 875 596 s gP6;
#X obj 975 596 s pP7;
#X obj 1015 596 s gP7;
#X obj 1115 596 s pP8;
#X obj 1155 596 s gP8;
#X obj 1255 596 s pP9;
#X obj 1295 596 s gP9;
#X connect 0 0 166 0;
#X connect 1 0 4 0;
#X connect 2 0 1 0;
#X connect 3 0 2 0;
#X connect 4 0 8 0;
#X connect 5 0 7 0;
#X connect 6 0 59 0;
#X connect 7 0 6 0;
#X connect 7 1 6 1;
#X connect 8 0 95 0;
#X connect 9 0 10 0;
#X connect 10 0 75 0;
#X connect 11 0 12 0;
#X connect 12 0 8 1;
#X connect 13 0 15 0;
#X connect 14 0 60 0;
#X connect 15 0 14 0;
#X connect 15 1 14 1;
#X connect 16 0 96 0;
#X connect 17 0 18 0;
#X connect 18 0 16 1;
#X connect 19 0 5 0;
#X connect 20 0 13 0;
#X connect 21 0 23 0;
#X connect 22 0 61 0;
#X connect 23 0 22 0;
#X connect 23 1 22 1;
#X connect 24 0 97 0;
#X connect 25 0 26 0;
#X connect 26 0 24 1;
#X connect 27 0 29 0;
#X connect 28 0 62 0;
#X connect 29 0 28 0;
#X connect 29 1 28 1;
#X connect 30 0 98 0;
#X connect 31 0 32 0;
#X connect 32 0 30 1;
#X connect 33 0 35 0;
#X connect 34 0 63 0;
#X connect 35 0 34 0;
#X connect 35 1 34 1;
#X connect 36 0 99 0;
#X connect 37 0 38 0;
#X connect 38 0 36 1;
#X connect 39 0 21 0;
#X connect 40 0 27 0;
#X connect 41 0 33 0;
#X connect 42 0 43 0;
#X connect 43 0 16 0;
#X connect 44 0 45 0;
#X connect 45 0 24 0;
#X connect 46 0 47 0;
#X connect 47 0 30 0;
#X connect 48 0 49 0;
#X connect 49 0 36 0;
#X connect 50 0 42 0;
#X connect 51 0 44 0;
#X connect 52 0 46 0;
#X connect 53 0 48 0;
#X connect 54 0 83 0;
#X connect 55 0 84 0;
#X connect 56 0 85 0;
#X connect 57 0 86 0;
#X connect 58 0 87 0;
#X connect 59 0 54 0;
#X connect 60 0 55 0;
#X connect 61 0 56 0;
#X connect 62 0 57 0;
#X connect 63 0 58 0;
#X connect 64 0 9 0;
#X connect 65 0 50 0;
#X connect 66 0 65 0;
#X connect 67 0 51 0;
#X connect 68 0 67 0;
#X connect 69 0 52 0;
#X connect 70 0 69 0;
#X connect 71 0 53 0;
#X connect 72 0 71 0;
#X connect 73 0 0 0;
#X connect 75 0 74 0;
#X connect 75 1 73 0;
#X connect 76 0 78 0;
#X connect 78 0 93 0;
#X connect 79 0 94 0;
#X connect 80 0 81 0;
#X connect 81 0 79 0;
#X connect 82 0 88 0;
#X connect 83 0 173 0;
#X connect 83 0 168 0;
#X connect 84 0 174 0;
#X connect 84 0 169 0;
#X connect 85 0 175 0;
#X connect 85 0 172 0;
#X connect 86 0 176 0;
#X connect 86 0 171 0;
#X connect 87 0 177 0;
#X connect 87 0 170 0;
#X connect 88 0 161 0;
#X connect 89 0 90 0;
#X connect 90 0 91 0;
#X connect 90 1 88 1;
#X connect 91 0 161 0;
#X connect 92 0 82 0;
#X connect 93 0 92 0;
#X connect 94 0 78 0;
#X connect 95 0 6 0;
#X connect 96 0 14 0;
#X connect 97 0 22 0;
#X connect 98 0 28 0;
#X connect 99 0 34 0;
#X connect 100 0 89 0;
#X connect 101 0 103 0;
#X connect 102 0 111 0;
#X connect 103 0 102 0;
#X connect 103 1 102 1;
#X connect 104 0 115 0;
#X connect 105 0 106 0;
#X connect 106 0 104 1;
#X connect 107 0 108 0;
#X connect 108 0 104 0;
#X connect 109 0 107 0;
#X connect 110 0 114 0;
#X connect 111 0 110 0;
#X connect 112 0 109 0;
#X connect 113 0 112 0;
#X connect 114 0 178 0;
#X connect 114 0 179 0;
#X connect 115 0 102 0;
#X connect 116 0 118 0;
#X connect 117 0 126 0;
#X connect 118 0 117 0;
#X connect 118 1 117 1;
#X connect 119 0 130 0;
#X connect 120 0 121 0;
#X connect 121 0 119 1;
#X connect 122 0 123 0;
#X connect 123 0 119 0;
#X connect 124 0 122 0;
#X connect 125 0 129 0;
#X connect 126 0 125 0;
#X connect 127 0 124 0;
#X connect 128 0 127 0;
#X connect 129 0 180 0;
#X connect 129 0 181 0;
#X connect 130 0 117 0;
#X connect 131 0 133 0;
#X connect 132 0 141 0;
#X connect 133 0 132 0;
#X connect 133 1 132 1;
#X connect 134 0 145 0;
#X connect 135 0 136 0;
#X connect 136 0 134 1;
#X connect 137 0 138 0;
#X connect 138 0 134 0;
#X connect 139 0 137 0;
#X connect 140 0 144 0;
#X connect 141 0 140 0;
#X connect 142 0 139 0;
#X connect 143 0 142 0;
#X connect 144 0 182 0;
#X connect 144 0 183 0;
#X connect 145 0 132 0;
#X connect 146 0 148 0;
#X connect 147 0 156 0;
#X connect 148 0 147 0;
#X connect 148 1 147 1;
#X connect 149 0 160 0;
#X connect 150 0 151 0;
#X connect 151 0 149 1;
#X connect 152 0 153 0;
#X connect 153 0 149 0;
#X connect 154 0 152 0;
#X connect 155 0 159 0;
#X connect 156 0 155 0;
#X connect 157 0 154 0;
#X connect 158 0 157 0;
#X connect 159 0 184 0;
#X connect 159 0 185 0;
#X connect 160 0 147 0;
#X connect 161 0 95 1;
#X connect 161 1 96 1;
#X connect 161 2 97 1;
#X connect 161 3 98 1;
#X connect 161 4 99 1;
#X connect 161 5 115 1;
#X connect 161 6 130 1;
#X connect 161 7 145 1;
#X connect 161 8 160 1;
#X connect 162 0 101 0;
#X connect 163 0 116 0;
#X connect 164 0 131 0;
#X connect 165 0 146 0;
#X connect 166 0 3 0;
#X connect 166 1 66 0;
#X connect 166 2 68 0;
#X connect 166 3 70 0;
#X connect 166 4 72 0;
#X connect 166 5 113 0;
#X connect 166 6 128 0;
#X connect 166 7 143 0;
#X connect 166 8 158 0;
#X restore 749 691 pd cLFO;
#X obj 11 -108 r gP1;
#X msg 11 -86 set \$1;
#X msg 71 -86 set \$1;
#X msg 131 -86 set \$1;
#X msg 191 -86 set \$1;
#X msg 251 -86 set \$1;
#X obj 71 -108 r gP2;
#X obj 131 -108 r gP3;
#X obj 191 -108 r gP4;
#X obj 251 -108 r gP5;
#X obj 124 459 s p1;
#X obj 174 459 s p2;
#X obj 224 459 s p3;
#X obj 274 459 s p4;
#X obj 324 459 s p5;
#X obj 92 409 t f f;
#X obj 142 409 t f f;
#X obj 192 409 t f f;
#X obj 242 409 t f f;
#X obj 292 409 t f f;
#X obj 10 438 s gGp1;
#X obj 70 438 s gGp2;
#X obj 250 438 s gGp5;
#X obj 190 438 s gGp4;
#X obj 130 438 s gGp3;
#X msg 479 583 roomsize \$1;
#X msg 479 628 damping \$1;
#X msg 479 672 width \$1;
#X msg 479 716 wet \$1;
#X msg 479 760 dry \$1;
#X obj 491 737 hsl 60 18 0 1 0 1 empty empty dry 2 9 1 12 -225271 -1
-1 4130 0;
#X obj 491 693 hsl 60 18 0 1 0 1 empty empty wet 2 9 1 12 -225271 -1
-1 1770 0;
#X obj 491 649 hsl 60 18 0 1 0 1 empty empty width 2 9 1 12 -262131
-1 -1 2700 0;
#X obj 491 605 hsl 60 18 0 2 0 1 empty empty damping 2 9 1 12 -261689
-1 -1 4900 0;
#X obj 491 560 hsl 60 18 0.11 1.1 0 1 empty empty roomsize 2 9 1 12
-261689 -1 -1 4410 0;
#X floatatom 461 564 3 0 0 0 - - -, f 3;
#X floatatom 461 609 3 0 0 0 - - -, f 3;
#X floatatom 461 654 3 0 0 0 - - -, f 3;
#X floatatom 461 697 3 0 0 0 - - -, f 3;
#X floatatom 461 741 3 0 0 0 - - -, f 3;
#X obj 596 751 freeverb~/freeverb~;
#X text 733 137 HP;
#X text 733 152 BP;
#X text 733 167 LP;
#X msg 558 -57 2;
#N canvas 1 78 450 300 SUBOSC 0;
#N canvas 1 78 526 512 OSCILS 0;
#X obj 96 235 phasor~;
#X obj 112 198 line~;
#X floatatom 112 73 7 0 0 0 freq - -, f 7;
#X obj 112 94 t f f;
#X floatatom 212 136 7 0 0 0 - - -, f 7;
#X obj 96 283 +~ 1;
#X obj 96 383 tabread4~ wformA;
#X obj 216 383 tabread4~ wformB;
#X obj 96 407 *~;
#X obj 216 407 *~;
#X floatatom 280 287 5 0 0 0 - - -, f 5;
#X msg 280 308 \$1 5;
#X obj 280 332 line~;
#X floatatom 330 287 5 0 0 0 - - -, f 5;
#X msg 330 308 \$1 5;
#X obj 330 332 line~;
#X obj 172 157 <= 10000;
#X obj 242 157 > 10000;
#X obj 212 112 * 14;
#X floatatom 292 116 7 0 0 0 - - -, f 7;
#X obj 346 407 *~;
#X obj 346 383 tabread4~ wformC;
#X floatatom 380 287 5 0 0 0 - - -, f 5;
#X msg 380 308 \$1 5;
#X obj 380 332 line~;
#X obj 330 147 <= 18000;
#X obj 330 231 +;
#X obj 330 171 t b f;
#X obj 330 255 == 2;
#X obj 292 92 * 11;
#X obj 380 255 > 18000;
#X obj 96 259 *~ 512;
#X obj 112 12 inlet;
#X obj 96 471 outlet~;
#X obj 112 34 mtof;
#X obj 112 116 pack 0 5;
#X obj 217 23 r porta;
#X floatatom 217 45 5 0 0 0 - - -, f 5;
#X connect 0 0 31 0;
#X connect 1 0 0 0;
#X connect 2 0 3 0;
#X connect 3 0 35 0;
#X connect 3 1 18 0;
#X connect 3 1 29 0;
#X connect 4 0 16 0;
#X connect 4 0 17 0;
#X connect 5 0 6 0;
#X connect 5 0 7 0;
#X connect 5 0 21 0;
#X connect 6 0 8 0;
#X connect 7 0 9 0;
#X connect 8 0 33 0;
#X connect 9 0 33 0;
#X connect 10 0 11 0;
#X connect 11 0 12 0;
#X connect 12 0 8 1;
#X connect 13 0 14 0;
#X connect 14 0 15 0;
#X connect 15 0 9 1;
#X connect 16 0 10 0;
#X connect 17 0 26 0;
#X connect 18 0 4 0;
#X connect 19 0 25 0;
#X connect 19 0 30 0;
#X connect 20 0 33 0;
#X connect 21 0 20 0;
#X connect 22 0 23 0;
#X connect 23 0 24 0;
#X connect 24 0 20 1;
#X connect 25 0 27 0;
#X connect 26 0 28 0;
#X connect 27 0 26 0;
#X connect 27 1 26 1;
#X connect 28 0 13 0;
#X connect 29 0 19 0;
#X connect 30 0 22 0;
#X connect 31 0 5 0;
#X connect 32 0 34 0;
#X connect 34 0 2 0;
#X connect 35 0 1 0;
#X connect 36 0 37 0;
#X connect 37 0 35 1;
#X restore 21 96 pd OSCILS;
#X obj 21 148 outlet~;
#X obj 21 33 inlet;
#X obj 21 55 - 12;
#N canvas 1 149 597 489 SUBWAVE 0;
#X text 376 166 triangle;
#X obj 240 55 array define wformB 512;
#X obj 240 80 array define wformC 512;
#X msg 37 262 \; wformB sinesum 512 1 0 -0.111111 0 0.04 0 -0.0204082
0 0.0123457 0 -0.00826446 \; wformB normalize \;;
#X msg 38 333 \; wformC sinesum 512 1 0 -0.111111 0 0.04 \; wformC
normalize \;;
#X msg 36 195 \; wformA sinesum 512 1 0 -0.111111 0 0.04 0 -0.0204082
0 0.0123457 0 -0.00826446 0 0.00591716 0 \; wformA normalize \;;
#X obj 240 30 array define wformA 512;
#X obj 55 23 loadbang;
#X connect 7 0 5 0;
#X connect 7 0 3 0;
#X connect 7 0 4 0;
#X restore 129 58 pd SUBWAVE;
#X connect 0 0 1 0;
#X connect 2 0 3 0;
#X connect 3 0 0 0;
#X restore 714 525 pd SUBOSC;
#X text 731 56 sine;
#X text 731 86 random;
#N canvas 364 184 995 501 DURATIONS 0;
#X obj 29 62 vradio 15 1 0 10 empty empty empty 0 -8 0 10 -260097 -1
-1 4;
#X text 47 60 1;
#X text 47 76 1T;
#X text 47 90 2;
#X text 47 107 2T;
#X text 47 120 4;
#X text 47 136 4T;
#X text 47 150 8;
#X text 47 166 8T;
#X text 47 180 16;
#X text 47 196 16T;
#X obj 228 162 sel 0 1 2 3 4 5 6 7 8 9;
#N canvas 1 78 450 300 bpm2freq 0;
#X obj 41 151 /;
#X obj 19 123 60000;
#X obj 25 96 t b f;
#X obj 25 45 inlet;
#X floatatom 25 72 5 0 0 0 - - -, f 5;
#X text 11 9 convert tempo in beats per minute;
#X text 10 25 to beat duration in millisecs;
#X obj 41 241 outlet;
#X floatatom 41 215 5 0 0 0 - - -, f 5;
#X obj 41 173 expr 1000/$f1;
#X connect 0 0 9 0;
#X connect 1 0 0 0;
#X connect 2 0 1 0;
#X connect 2 1 0 1;
#X connect 3 0 4 0;
#X connect 4 0 2 0;
#X connect 8 0 7 0;
#X connect 9 0 8 0;
#X restore 96 389 pd bpm2freq;
#X floatatom 96 411 5 0 0 0 - - -, f 5;
#X floatatom 29 39 5 0 0 2 bpm - -, f 5;
#X obj 254 317 f 4;
#X obj 96 349 *;
#X obj 49 271 t b f;
#X obj 82 322 t b f;
#X floatatom 96 371 5 0 0 0 - - -, f 5;
#X obj 96 430 outlet;
#X msg 319 203 1;
#X msg 324 233 1.5;
#X msg 349 203 2;
#X msg 354 233 3;
#X msg 379 203 4;
#X msg 384 233 6;
#X msg 294 233 0.75;
#X msg 289 203 0.5;
#X msg 254 203 0.25;
#X msg 253 233 0.125;
#X msg 207 68 87;
#X obj 207 16 loadbang;
#X obj 207 38 t b b;
#X msg 247 68 4;
#X obj 91 209 min 240;
#X obj 91 231 max 40;
#X msg 154 262 set \$1;
#X connect 0 0 17 0;
#X connect 11 0 29 0;
#X connect 11 1 30 0;
#X connect 11 2 28 0;
#X connect 11 3 27 0;
#X connect 11 4 21 0;
#X connect 11 5 22 0;
#X connect 11 6 23 0;
#X connect 11 7 24 0;
#X connect 11 8 25 0;
#X connect 11 9 26 0;
#X connect 12 0 13 0;
#X connect 13 0 20 0;
#X connect 14 0 35 0;
#X connect 15 0 16 0;
#X connect 16 0 19 0;
#X connect 17 0 15 0;
#X connect 17 1 11 0;
#X connect 18 0 15 0;
#X connect 18 1 16 1;
#X connect 19 0 12 0;
#X connect 21 0 15 1;
#X connect 22 0 15 1;
#X connect 23 0 15 1;
#X connect 24 0 15 1;
#X connect 25 0 15 1;
#X connect 26 0 15 1;
#X connect 27 0 15 1;
#X connect 28 0 15 1;
#X connect 29 0 15 1;
#X connect 30 0 15 1;
#X connect 31 0 14 0;
#X connect 32 0 33 0;
#X connect 33 0 34 0;
#X connect 33 1 31 0;
#X connect 34 0 0 0;
#X connect 35 0 36 0;
#X connect 36 0 18 0;
#X connect 36 0 37 0;
#X connect 37 0 14 0;
#X coords 0 -1 1 1 50 190 2 25 25;
#X restore 523 56 pd DURATIONS;
#X text 731 71 sawtooth;
#X msg 703 -57 0;
#X obj 18 230 hsl 128 15 0 1 0 0 gC_LFOdepth empty ControlLfo 5 8 0
10 -260097 -1 -1 0 0;
#X obj 261 55 tgl 15 0 adsr2cLfo empty EnvToControlLfo 17 7 0 10 -130160
-1 -1 0 1;
#X obj 261 75 tgl 15 0 adsr2amp empty EnvToAmp 17 7 0 10 -130160 -1
-1 1 1;
#X msg 645 -57 1;
#X obj 18 190 hsl 128 15 0 1 0 0 empty empty Portamento 5 8 0 10 -260097
-1 -1 0 0;
#X obj 770 369 t f f;
#X obj 770 391 *;
#X obj 770 435 + 5;
#X obj 770 413 * 695;
#X obj 770 457 s porta;
#X obj 704 437 r porta;
#X text 12 161 Wave Points;
#X obj 794 11 cnv 15 260 250 empty empty SCOPE 5 12 0 14 -260097 -66577
0;
#N canvas 1 78 879 577 SCOPE 0;
#X obj 100 100 cnv 15 240 150 empty empty empty 20 12 0 14 -130160
-66577 0;
#X obj 577 189 inlet~;
#X obj 577 233 tabsend~ plot;
#N canvas 0 50 450 278 (subpatch) 0;
#X array plot 512 float 5;
#A 0 3.58962e-10 3.58483e-10 3.58021e-10 3.5756e-10 3.5708e-10 3.56619e-10
3.56157e-10 3.55678e-10 3.55216e-10 3.54755e-10 3.54293e-10 3.53832e-10
3.5337e-10 3.52909e-10 3.52447e-10 3.51986e-10 3.51524e-10 3.51062e-10
3.50601e-10 3.50139e-10 3.49678e-10 3.49216e-10 3.48772e-10 3.48311e-10
3.47849e-10 3.47405e-10 3.46944e-10 3.46482e-10 3.46039e-10 3.45577e-10
3.45133e-10 3.44672e-10 3.44228e-10 3.43784e-10 3.43323e-10 3.42879e-10
3.42435e-10 3.41973e-10 3.4153e-10 3.41086e-10 3.40642e-10 3.40198e-10
3.39754e-10 3.39311e-10 3.38849e-10 3.38423e-10 3.37979e-10 3.37535e-10
3.37092e-10 3.36648e-10 3.36204e-10 3.3576e-10 3.35334e-10 3.3489e-10
3.34447e-10 3.34003e-10 3.33577e-10 3.33133e-10 3.32707e-10 3.32263e-10
3.31837e-10 3.31393e-10 3.30967e-10 3.30523e-10 3.30097e-10 3.29671e-10
3.29228e-10 3.28801e-10 3.28375e-10 3.27949e-10 3.27506e-10 3.2708e-10
3.26653e-10 3.26227e-10 3.25801e-10 3.25375e-10 3.24949e-10 3.24523e-10
3.24097e-10 3.23671e-10 3.23245e-10 3.22819e-10 3.22411e-10 3.21985e-10
3.21559e-10 3.21133e-10 3.20724e-10 3.20298e-10 3.19872e-10 3.19464e-10
3.19038e-10 3.1863e-10 3.18204e-10 3.17795e-10 3.17369e-10 3.16961e-10
3.16553e-10 3.16127e-10 3.15718e-10 3.1531e-10 3.14884e-10 3.14476e-10
3.14067e-10 3.13659e-10 3.13251e-10 3.12843e-10 3.12434e-10 3.12026e-10
3.11618e-10 3.11209e-10 3.10801e-10 3.10393e-10 3.09984e-10 3.09576e-10
3.09168e-10 3.0876e-10 3.08369e-10 3.07961e-10 3.07552e-10 3.07144e-10
3.06754e-10 3.06345e-10 3.05955e-10 3.05546e-10 3.05138e-10 3.04748e-10
3.04357e-10 3.03949e-10 3.03558e-10 3.0315e-10 3.02759e-10 3.02369e-10
3.01961e-10 3.0157e-10 3.01179e-10 3.00789e-10 3.00381e-10 2.9999e-10
2.996e-10 2.99209e-10 2.98818e-10 2.98428e-10 2.98037e-10 2.97647e-10
2.97256e-10 2.96866e-10 2.96475e-10 2.96085e-10 2.95712e-10 2.95321e-10
2.94931e-10 2.9454e-10 2.9415e-10 2.93777e-10 2.93386e-10 2.93014e-10
2.92623e-10 2.92232e-10 2.9186e-10 2.91469e-10 2.91096e-10 2.90706e-10
2.90333e-10 2.89942e-10 2.8957e-10 2.89197e-10 2.88806e-10 2.88434e-10
2.88061e-10 2.87688e-10 2.87297e-10 2.86925e-10 2.86552e-10 2.86179e-10
2.85806e-10 2.85433e-10 2.85061e-10 2.84688e-10 2.84315e-10 2.83942e-10
2.8357e-10 2.83197e-10 2.82824e-10 2.82451e-10 2.82078e-10 2.81706e-10
2.81351e-10 2.80978e-10 2.80605e-10 2.8025e-10 2.79877e-10 2.79504e-10
2.79149e-10 2.78777e-10 2.78421e-10 2.78049e-10 2.77676e-10 2.77321e-10
2.76966e-10 2.76593e-10 2.76238e-10 2.75865e-10 2.7551e-10 2.75155e-10
2.74782e-10 2.74427e-10 2.74072e-10 2.73717e-10 2.73362e-10 2.72989e-10
2.72634e-10 2.72279e-10 2.71924e-10 2.71569e-10 2.71214e-10 2.70859e-10
2.70504e-10 2.70149e-10 2.69794e-10 2.69439e-10 2.69084e-10 2.68747e-10
2.68392e-10 2.68037e-10 2.67682e-10 2.67326e-10 2.66989e-10 2.66634e-10
2.66279e-10 2.65942e-10 2.65587e-10 2.6525e-10 2.64894e-10 2.64539e-10
2.64202e-10 2.63847e-10 2.6351e-10 2.63173e-10 2.62818e-10 2.6248e-10
2.62125e-10 2.61788e-10 2.61451e-10 2.61113e-10 2.60758e-10 2.60421e-10
2.60084e-10 2.59746e-10 2.59409e-10 2.59054e-10 2.58717e-10 2.5838e-10
2.58042e-10 2.57705e-10 2.57368e-10 2.5703e-10 2.56693e-10 2.56356e-10
2.56019e-10 2.55681e-10 2.55362e-10 2.55024e-10 2.54687e-10 2.5435e-10
2.54013e-10 2.53693e-10 2.53356e-10 2.53018e-10 2.52699e-10 2.52362e-10
2.52024e-10 2.51705e-10 2.51368e-10 2.51048e-10 2.50711e-10 2.50391e-10
2.50054e-10 2.49734e-10 2.49397e-10 2.49078e-10 2.48758e-10 2.48421e-10
2.48101e-10 2.47782e-10 2.47444e-10 2.47125e-10 2.46805e-10 2.46486e-10
2.46166e-10 2.45829e-10 2.45509e-10 2.4519e-10 2.4487e-10 2.44551e-10
2.44231e-10 2.43912e-10 2.43592e-10 2.43273e-10 2.42953e-10 2.42634e-10
2.42314e-10 2.42012e-10 2.41693e-10 2.41373e-10 2.41054e-10 2.40734e-10
2.40432e-10 2.40113e-10 2.39793e-10 2.39474e-10 2.39172e-10 2.38852e-10
2.38551e-10 2.38231e-10 2.37912e-10 2.3761e-10 2.3729e-10 2.36988e-10
2.36669e-10 2.36367e-10 2.36048e-10 2.35746e-10 2.35444e-10 2.35124e-10
2.34823e-10 2.34521e-10 2.34201e-10 2.339e-10 2.33598e-10 2.33296e-10
2.32976e-10 2.32675e-10 2.32373e-10 2.32071e-10 2.31769e-10 2.31468e-10
2.31166e-10 2.30864e-10 2.30562e-10 2.3026e-10 2.29959e-10 2.29657e-10
2.29355e-10 2.29053e-10 2.28752e-10 2.2845e-10 2.28148e-10 2.27846e-10
2.27562e-10 2.2726e-10 2.26959e-10 2.26657e-10 2.26373e-10 2.26071e-10
2.25769e-10 2.25485e-10 2.25183e-10 2.24882e-10 2.24598e-10 2.24296e-10
2.24012e-10 2.2371e-10 2.23426e-10 2.23124e-10 2.2284e-10 2.22538e-10
2.22254e-10 2.2197e-10 2.21669e-10 2.21384e-10 2.21083e-10 2.20799e-10
2.20515e-10 2.20231e-10 2.19929e-10 2.19645e-10 2.19361e-10 2.19077e-10
2.18793e-10 2.18509e-10 2.18207e-10 2.17923e-10 2.17639e-10 2.17355e-10
2.17071e-10 2.16787e-10 2.16503e-10 2.16219e-10 2.15935e-10 2.15651e-10
2.15367e-10 2.151e-10 2.14816e-10 2.14532e-10 2.14248e-10 2.13964e-10
2.1368e-10 2.13414e-10 2.1313e-10 2.12846e-10 2.1258e-10 2.12295e-10
2.12011e-10 2.11745e-10 2.11461e-10 2.11177e-10 2.10911e-10 2.10627e-10
2.10361e-10 2.10076e-10 2.0981e-10 2.09526e-10 2.0926e-10 2.08976e-10
2.0871e-10 2.08443e-10 2.08159e-10 2.07893e-10 2.07627e-10 2.07343e-10
2.07076e-10 2.0681e-10 2.06526e-10 2.0626e-10 2.05994e-10 2.05727e-10
2.05461e-10 2.05177e-10 2.04911e-10 2.04644e-10 2.04378e-10 2.04112e-10
2.03846e-10 2.03579e-10 2.03313e-10 2.03047e-10 2.0278e-10 2.02514e-10
2.02248e-10 2.01982e-10 2.01715e-10 2.01449e-10 2.01201e-10 2.00934e-10
2.00668e-10 2.00402e-10 2.00135e-10 1.99887e-10 1.99621e-10 1.99354e-10
1.99088e-10 1.9884e-10 1.98573e-10 1.98307e-10 1.98058e-10 1.97792e-10
1.97544e-10 1.97277e-10 1.97029e-10 1.96763e-10 1.96514e-10 1.96248e-10
1.95999e-10 1.95733e-10 1.95484e-10 1.95218e-10 1.9497e-10 1.94712e-10
1.94455e-10 1.94206e-10 1.93949e-10 1.93691e-10 1.93443e-10 1.93186e-10
1.92937e-10 1.9268e-10 1.92431e-10 1.92174e-10 1.91925e-10 1.91677e-10
1.91428e-10 1.91171e-10 1.90922e-10 1.90674e-10 1.90425e-10 1.90177e-10
1.89928e-10 1.8968e-10 1.89431e-10 1.89182e-10 1.88934e-10 1.88685e-10
1.88437e-10 1.88188e-10 1.87949e-10 1.877e-10 1.87452e-10 1.87212e-10
1.86963e-10 1.86715e-10 1.86475e-10 1.86227e-10 1.85987e-10 1.85747e-10
1.85499e-10 1.85259e-10 1.85011e-10 1.84771e-10 1.84531e-10 1.84292e-10
1.84052e-10 1.83804e-10;
#X coords 0 1 511 -1 210 120 1 0 0;
#X restore 112 114 graph;
#X msg 801 179 set \$1;
#X obj 801 201 block~ 512;
#X obj 324 114 vradio 15 1 0 8 empty empty empty 0 -8 0 10 -130160
-1 -1 3;
#X obj 705 260 pow;
#X obj 687 219 t b f;
#X msg 687 241 2;
#X floatatom 705 282 5 0 0 0 - - -, f 5;
#X obj 705 301 t f f;
#X msg 663 353 \; plot resize \$1;
#X msg 461 465 \; plot ylabel 0 -1 0 1;
#X obj 488 438 loadbang;
#X msg 623 476 2;
#X obj 735 232 + 3;
#X obj 451 91 loadbang;
#X obj 493 219 + 3;
#X msg 451 113 3;
#X connect 1 0 2 0;
#X connect 4 0 5 0;
#X connect 6 0 18 0;
#X connect 7 0 10 0;
#X connect 8 0 9 0;
#X connect 8 1 16 0;
#X connect 9 0 7 0;
#X connect 10 0 11 0;
#X connect 11 0 12 0;
#X connect 11 1 4 0;
#X connect 14 0 13 0;
#X connect 14 0 15 0;
#X connect 15 0 6 0;
#X connect 16 0 7 1;
#X connect 17 0 19 0;
#X connect 18 0 8 0;
#X connect 19 0 6 0;
#X coords 0 -1 1 1 240 150 2 100 100;
#X restore 803 69 pd SCOPE;
#X msg 529 -57 54;
#X obj 978 556 clip~ -1 1;
#X floatatom 997 471 5 0 0 0 - - -, f 5;
#X obj 997 490 pack 0 5;
#X obj 997 512 line~;
#X obj 978 534 *~;
#X obj 831 616 expr 2-$f1;
#X msg 346 -78 0 -1 1;
#X obj 346 -56 unpack 0 0 0;
#X obj 1091 20 r midiDevice;
#X obj 1091 64 s pd;
#X msg 1091 42 midi-properties;
#X msg 773 -59 \; pd dsp 1;
#X obj 114 57 vsl 15 100 -1 1 0 0 empty empty p6 0 -9 0 10 -260097
-1 -1 0 0;
#X obj 134 57 vsl 15 100 -1 1 0 0 empty empty p7 0 -9 0 10 -260097
-1 -1 0 0;
#X obj 154 57 vsl 15 100 -1 1 0 0 empty empty p8 0 -9 0 10 -260097
-1 -1 0 0;
#X obj 174 57 vsl 15 100 -1 1 0 0 empty empty p9 0 -9 0 10 -260097
-1 -1 0 0;
#X obj 342 379 f;
#X obj 342 409 t f f;
#X obj 392 379 f;
#X obj 392 409 t f f;
#X obj 442 379 f;
#X obj 442 409 t f f;
#X obj 492 379 f;
#X obj 492 409 t f f;
#X obj 374 459 s p6;
#X obj 424 459 s p7;
#X obj 474 459 s p8;
#X obj 300 438 s gGp6;
#X obj 350 438 s gGp7;
#X obj 400 438 s gGp8;
#X obj 450 438 s gGp9;
#X obj 524 459 s p9;
#X msg 615 -57 4;
#X msg 71 -36 set \$1;
#X msg 131 -36 set \$1;
#X msg 191 -36 set \$1;
#X msg 251 -36 set \$1;
#X obj 251 -58 r gP9;
#X obj 191 -58 r gP8;
#X obj 131 -58 r gP7;
#X obj 71 -58 r gP6;
#X obj 596 773 *~ 0.35;
#X obj 804 44 tgl 15 0 empty empty plotPreReverb 17 7 0 10 -262144
-1 -1 1 1;
#X obj 1062 556 clip~ -1 1;
#X floatatom 1079 439 5 0 0 0 - - -, f 5;
#X obj 1079 488 pack 0 5;
#X obj 1079 510 line~;
#X obj 1062 535 *~;
#X obj 978 600 +~;
#X obj 978 578 *~ 0;
#X obj 1062 578 *~ 1;
#X obj 1082 220 t f f;
#X obj 1082 242 expr 1-$f1;
#X msg 674 -57 1;
#X obj 1079 458 + 0.5;
#X obj 978 622 s~ toPlot;
#X obj 860 -17 r~ toPlot;
#X obj 581 218 hsl 128 15 0 1 0 0 gVerb empty Reverb 5 8 0 10 -260097
-1 -1 3810 0;
#X obj 581 158 hsl 128 15 0 1 0 0 gQ empty Resonance 5 8 0 10 -260097
-1 -1 0 0;
#X obj 356 622 r gVerb;
#X floatatom 356 644 5 0 0 0 - - -, f 5;
#X obj 356 663 t f f;
#X obj 356 685 expr 1-$f1;
#X msg 733 -57 0.3;
#N canvas 833 498 153 81 reverbParams 0;
#N canvas 1 78 450 300 verbParamsGUI 0;
#X msg 236 207 roomsize \$1;
#X msg 146 213 width \$1;
#X obj 104 135 hsl 120 15 0 1 0 1 empty empty width 5 8 0 12 -260097
-1 -1 7300 0;
#X obj 104 118 hsl 120 15 0 2 0 1 empty empty damping 5 8 0 12 -130160
-1 -1 3900 0;
#X obj 104 101 hsl 120 15 0.11 1.1 0 1 empty empty roomsize 5 8 0 12
-260097 -1 -1 5000 0;
#X obj 157 244 s toVerb;
#X msg 336 210 damping \$1;
#X connect 0 0 5 0;
#X connect 1 0 5 0;
#X connect 2 0 1 0;
#X connect 3 0 6 0;
#X connect 4 0 0 0;
#X connect 6 0 5 0;
#X coords 0 -1 1 1 127 51 2 100 100;
#X restore 13 12 pd verbParamsGUI;
#X restore 419 519 pd reverbParams;
#X obj 779 722 r toVerb;
#X obj 578 237 bng 15 250 50 0 empty empty reverbParams 17 7 0 10 -260097
-1 -1;
#X msg 509 268 \; pd-reverbParams vis 1;
#X connect 3 0 44 0;
#X connect 4 0 45 0;
#X connect 5 0 46 0;
#X connect 6 0 47 0;
#X connect 7 0 48 0;
#X connect 8 0 9 0;
#X connect 10 0 11 0;
#X connect 11 0 12 0;
#X connect 12 0 37 0;
#X connect 14 0 15 0;
#X connect 15 0 30 1;
#X connect 15 0 123 0;
#X connect 16 0 28 0;
#X connect 17 0 28 1;
#X connect 18 0 10 0;
#X connect 19 0 20 0;
#X connect 19 0 150 0;
#X connect 19 0 8 0;
#X connect 19 0 96 0;
#X connect 19 0 102 0;
#X connect 19 0 106 0;
#X connect 19 0 124 0;
#X connect 19 0 117 0;
#X connect 19 0 129 0;
#X connect 19 0 171 0;
#X connect 19 0 181 0;
#X connect 20 0 16 0;
#X connect 21 0 11 1;
#X connect 22 0 25 0;
#X connect 23 0 27 0;
#X connect 23 1 27 1;
#X connect 24 0 25 1;
#X connect 24 1 51 0;
#X connect 25 0 29 0;
#X connect 27 0 33 0;
#X connect 27 1 41 0;
#X connect 29 0 32 0;
#X connect 30 0 25 0;
#X connect 32 0 92 0;
#X connect 32 0 165 0;
#X connect 33 0 18 0;
#X connect 33 1 97 0;
#X connect 33 2 24 0;
#X connect 33 3 34 0;
#X connect 37 0 22 0;
#X connect 37 1 32 1;
#X connect 41 0 24 1;
#X connect 41 1 42 0;
#X connect 44 0 67 0;
#X connect 45 0 68 0;
#X connect 46 0 69 0;
#X connect 47 0 70 0;
#X connect 48 0 71 0;
#X connect 49 0 44 0;
#X connect 49 0 45 0;
#X connect 49 0 46 0;
#X connect 49 0 47 0;
#X connect 49 0 48 0;
#X connect 49 0 134 0;
#X connect 49 0 136 0;
#X connect 49 0 138 0;
#X connect 49 0 140 0;
#X connect 52 0 53 0;
#X connect 53 0 3 0;
#X connect 54 0 4 0;
#X connect 55 0 5 0;
#X connect 56 0 6 0;
#X connect 57 0 7 0;
#X connect 58 0 54 0;
#X connect 59 0 55 0;
#X connect 60 0 56 0;
#X connect 61 0 57 0;
#X connect 67 0 72 0;
#X connect 67 1 62 0;
#X connect 68 0 73 0;
#X connect 68 1 63 0;
#X connect 69 0 76 0;
#X connect 69 1 64 0;
#X connect 70 0 75 0;
#X connect 70 1 65 0;
#X connect 71 0 74 0;
#X connect 71 1 66 0;
#X connect 77 0 92 0;
#X connect 78 0 92 0;
#X connect 79 0 92 0;
#X connect 80 0 92 0;
#X connect 81 0 92 0;
#X connect 82 0 81 0;
#X connect 82 0 91 0;
#X connect 83 0 80 0;
#X connect 83 0 90 0;
#X connect 84 0 79 0;
#X connect 84 0 89 0;
#X connect 85 0 78 0;
#X connect 85 0 88 0;
#X connect 86 0 77 0;
#X connect 86 0 87 0;
#X connect 92 0 122 0;
#X connect 92 0 159 0;
#X connect 96 0 36 0;
#X connect 97 0 30 0;
#X connect 100 0 38 0;
#X connect 102 0 39 0;
#X connect 102 0 40 0;
#X connect 102 0 15 0;
#X connect 106 0 105 0;
#X connect 107 0 108 0;
#X connect 108 0 109 0;
#X connect 108 1 109 1;
#X connect 109 0 111 0;
#X connect 110 0 112 0;
#X connect 111 0 110 0;
#X connect 113 0 21 0;
#X connect 117 0 35 0;
#X connect 118 0 167 0;
#X connect 119 0 120 0;
#X connect 120 0 121 0;
#X connect 121 0 122 1;
#X connect 122 0 118 0;
#X connect 123 0 119 0;
#X connect 123 0 162 0;
#X connect 124 0 125 0;
#X connect 125 0 3 0;
#X connect 125 0 5 0;
#X connect 125 0 7 0;
#X connect 125 1 4 0;
#X connect 125 2 6 0;
#X connect 126 0 128 0;
#X connect 128 0 127 0;
#X connect 130 0 134 0;
#X connect 131 0 136 0;
#X connect 132 0 138 0;
#X connect 133 0 140 0;
#X connect 134 0 135 0;
#X connect 135 0 145 0;
#X connect 135 1 142 0;
#X connect 136 0 137 0;
#X connect 137 0 146 0;
#X connect 137 1 143 0;
#X connect 138 0 139 0;
#X connect 139 0 147 0;
#X connect 139 1 144 0;
#X connect 140 0 141 0;
#X connect 141 0 148 0;
#X connect 141 1 149 0;
#X connect 150 0 17 0;
#X connect 151 0 130 0;
#X connect 152 0 131 0;
#X connect 153 0 132 0;
#X connect 154 0 133 0;
#X connect 155 0 154 0;
#X connect 156 0 153 0;
#X connect 157 0 152 0;
#X connect 158 0 151 0;
#X connect 159 0 13 0;
#X connect 159 0 13 1;
#X connect 160 0 169 0;
#X connect 161 0 168 0;
#X connect 162 0 172 0;
#X connect 163 0 164 0;
#X connect 164 0 165 1;
#X connect 165 0 161 0;
#X connect 166 0 173 0;
#X connect 167 0 166 0;
#X connect 168 0 166 1;
#X connect 169 0 170 0;
#X connect 169 1 168 1;
#X connect 170 0 167 1;
#X connect 171 0 160 0;
#X connect 172 0 163 0;
#X connect 174 0 116 0;
#X connect 177 0 178 0;
#X connect 178 0 179 0;
#X connect 179 0 180 0;
#X connect 179 1 83 0;
#X connect 180 0 82 0;
#X connect 181 0 175 0;
#X connect 183 0 92 0;
#X connect 184 0 185 0;
#X coords 0 -1 1 1 1045 252 2 10 10;
#X restore 6 28 pd CORE;
#X obj 6 287 bng 15 250 50 0 midiDevice empty selectMidiDevice 17 7
0 10 -262144 -1 -1;
